<?xml version="1.0" standalone="no"?>
<!DOCTYPE svg PUBLIC "-//W3C//DTD SVG 20010904//EN"
 "http://www.w3.org/TR/2001/REC-SVG-20010904/DTD/svg10.dtd">
<svg version="1.0" xmlns="http://www.w3.org/2000/svg"
 width="720.000000pt" height="720.000000pt" viewBox="0 0 720.000000 720.000000"
 preserveAspectRatio="xMidYMid meet">
<metadata>
Created by potrace 1.11, written by Peter Selinger 2001-2013
</metadata>
<g transform="translate(0.000000,720.000000) scale(0.100000,-0.100000)"
fill="#000000" stroke="none">
<path d="M6360 6010 c0 -5 5 -10 11 -10 5 0 7 5 4 10 -3 6 -8 10 -11 10 -2 0
-4 -4 -4 -10z"/>
<path d="M6386 5941 c-4 -7 -5 -15 -2 -18 9 -9 19 4 14 18 -4 11 -6 11 -12 0z"/>
<path d="M6430 5773 c0 -5 5 -15 10 -23 8 -12 10 -11 10 8 0 12 -4 22 -10 22
-5 0 -10 -3 -10 -7z"/>
<path d="M6560 5696 c0 -9 5 -16 10 -16 6 0 10 4 10 9 0 6 -4 13 -10 16 -5 3
-10 -1 -10 -9z"/>
<path d="M6300 5615 c-10 -12 -10 -15 4 -15 9 0 16 7 16 15 0 8 -2 15 -4 15
-2 0 -9 -7 -16 -15z"/>
<path d="M6356 5623 c-11 -11 -6 -23 9 -23 8 0 15 4 15 9 0 13 -16 22 -24 14z"/>
<path d="M6510 5595 c0 -8 7 -15 15 -15 8 0 15 4 15 9 0 5 -7 11 -15 15 -9 3
-15 0 -15 -9z"/>
<path d="M6305 5566 c-5 -11 -3 -26 3 -37 7 -10 12 -35 12 -54 0 -32 3 -35 29
-35 l29 0 4 -95 c2 -52 9 -100 14 -105 18 -18 44 0 44 30 0 19 6 29 20 33 20
5 24 -5 34 -93 2 -19 3 -3 3 35 0 77 3 96 18 108 6 5 0 7 -12 4 -16 -3 -23 0
-23 9 0 21 -31 17 -37 -5 -3 -11 -13 -21 -24 -24 -17 -4 -19 0 -19 38 0 35 4
44 23 50 l22 8 -22 4 c-13 2 -23 11 -23 19 0 8 -7 17 -15 20 -8 4 -15 15 -15
25 0 10 -4 19 -10 19 -5 0 -10 7 -10 15 0 8 -6 15 -14 15 -8 0 -16 8 -19 18
-4 16 -5 16 -12 -2z"/>
<path d="M6640 5550 c0 -5 5 -10 11 -10 5 0 7 5 4 10 -3 6 -8 10 -11 10 -2 0
-4 -4 -4 -10z"/>
<path d="M5042 5520 c0 -14 2 -19 5 -12 2 6 2 18 0 25 -3 6 -5 1 -5 -13z"/>
<path d="M330 5480 c0 -5 5 -10 11 -10 5 0 7 5 4 10 -3 6 -8 10 -11 10 -2 0
-4 -4 -4 -10z"/>
<path d="M6480 5470 c0 -5 5 -10 11 -10 5 0 7 5 4 10 -3 6 -8 10 -11 10 -2 0
-4 -4 -4 -10z"/>
<path d="M6580 5450 c0 -5 5 -10 11 -10 5 0 7 5 4 10 -3 6 -8 10 -11 10 -2 0
-4 -4 -4 -10z"/>
<path d="M471 5434 c0 -11 3 -14 6 -6 3 7 2 16 -1 19 -3 4 -6 -2 -5 -13z"/>
<path d="M5060 5435 c0 -8 5 -15 10 -15 6 0 10 7 10 15 0 8 -4 15 -10 15 -5 0
-10 -7 -10 -15z"/>
<path d="M4960 5400 c0 -18 4 -29 10 -25 6 3 10 15 10 25 0 10 -4 22 -10 25
-6 4 -10 -7 -10 -25z"/>
<path d="M6510 5400 c0 -5 5 -10 10 -10 6 0 10 5 10 10 0 6 -4 10 -10 10 -5 0
-10 -4 -10 -10z"/>
<path d="M6176 5371 c-15 -16 -15 -22 -4 -40 10 -17 10 -25 0 -41 -6 -11 -12
-28 -12 -37 0 -15 -4 -14 -19 6 l-19 25 -13 -42 c-7 -23 -16 -42 -21 -42 -4 0
-8 -7 -8 -15 0 -8 5 -15 10 -15 6 0 10 -6 10 -13 0 -16 23 -67 30 -67 3 0 12
5 20 10 13 9 13 11 0 20 -12 7 -12 12 -2 22 6 6 12 22 12 35 0 14 6 23 15 23
11 0 15 13 15 53 0 28 4 68 10 87 12 42 0 57 -24 31z"/>
<path d="M6240 5370 c0 -5 7 -10 15 -10 8 0 15 5 15 10 0 6 -7 10 -15 10 -8 0
-15 -4 -15 -10z"/>
<path d="M5030 5325 c-5 -14 -20 -30 -32 -35 -21 -8 -20 -9 10 -9 22 -1 32 4
32 14 0 9 9 15 21 15 14 0 19 5 17 17 -5 29 -37 28 -48 -2z"/>
<path d="M6237 5272 l4 -67 -33 -16 c-37 -18 -41 -35 -31 -148 4 -56 9 -69 35
-93 34 -32 59 -35 83 -11 15 15 15 17 1 25 -12 7 -14 14 -6 27 12 24 2 33 -22
20 -21 -11 -38 -4 -38 17 0 8 -4 14 -10 14 -15 0 -12 74 5 96 14 19 14 18 15
-3 0 -23 23 -32 35 -13 3 6 1 10 -5 10 -8 0 -9 25 -4 85 6 78 5 88 -13 105
-20 18 -20 18 -16 -48z"/>
<path d="M58 5323 c6 -2 18 -2 25 0 6 3 1 5 -13 5 -14 0 -19 -2 -12 -5z"/>
<path d="M6140 5295 c0 -8 5 -15 10 -15 6 0 10 7 10 15 0 8 -4 15 -10 15 -5 0
-10 -7 -10 -15z"/>
<path d="M896 5282 c-3 -6 1 -12 9 -16 8 -3 15 -10 15 -15 0 -6 -7 -8 -15 -5
-8 4 -15 2 -15 -4 0 -16 24 -21 37 -7 9 10 8 18 -7 35 -10 11 -21 17 -24 12z"/>
<path d="M3545 5280 c-3 -5 1 -10 9 -10 9 0 16 5 16 10 0 6 -4 10 -9 10 -6 0
-13 -4 -16 -10z"/>
<path d="M5049 5229 l-27 -29 24 0 c17 0 25 7 30 25 9 36 3 37 -27 4z"/>
<path d="M6352 5230 c0 -19 2 -27 5 -17 2 9 2 25 0 35 -3 9 -5 1 -5 -18z"/>
<path d="M6460 5231 c0 -11 -5 -23 -10 -26 -6 -4 -8 -11 -5 -16 9 -14 35 16
35 40 0 12 -4 21 -10 21 -5 0 -10 -9 -10 -19z"/>
<path d="M2115 5230 c3 -5 11 -10 16 -10 6 0 7 5 4 10 -3 6 -11 10 -16 10 -6
0 -7 -4 -4 -10z"/>
<path d="M482 5214 c-12 -8 -22 -21 -22 -27 0 -7 7 -3 15 7 8 11 28 19 45 20
16 1 30 4 30 9 0 13 -45 7 -68 -9z"/>
<path d="M3611 5214 c0 -11 3 -14 6 -6 3 7 2 16 -1 19 -3 4 -6 -2 -5 -13z"/>
<path d="M572 5200 c7 -10 14 -18 15 -16 6 6 -9 36 -18 36 -5 0 -4 -9 3 -20z"/>
<path d="M1513 5184 c-3 -8 -1 -20 6 -27 8 -8 11 -4 11 16 0 30 -7 35 -17 11z"/>
<path d="M3425 5190 c4 -6 11 -8 16 -5 14 9 11 15 -7 15 -8 0 -12 -5 -9 -10z"/>
<path d="M6321 5184 c0 -11 3 -14 6 -6 3 7 2 16 -1 19 -3 4 -6 -2 -5 -13z"/>
<path d="M235 5170 c3 -5 8 -10 11 -10 2 0 4 5 4 10 0 6 -5 10 -11 10 -5 0 -7
-4 -4 -10z"/>
<path d="M6470 5173 c0 -4 5 -15 10 -23 8 -13 10 -13 10 2 0 9 -4 20 -10 23
-5 3 -10 3 -10 -2z"/>
<path d="M192 5137 c2 -17 10 -22 31 -22 15 -1 33 3 40 8 7 5 -3 7 -25 3 -35
-4 -54 7 -26 16 7 3 5 7 -6 11 -14 6 -17 2 -14 -16z"/>
<path d="M882 5140 c0 -14 2 -19 5 -12 2 6 2 18 0 25 -3 6 -5 1 -5 -13z"/>
<path d="M3407 5139 c4 -13 8 -18 11 -10 2 7 -1 18 -6 23 -8 8 -9 4 -5 -13z"/>
<path d="M300 5139 c0 -5 5 -7 10 -4 6 3 10 8 10 11 0 2 -4 4 -10 4 -5 0 -10
-5 -10 -11z"/>
<path d="M451 5134 c0 -11 3 -14 6 -6 3 7 2 16 -1 19 -3 4 -6 -2 -5 -13z"/>
<path d="M587 5130 c3 -11 14 -20 24 -20 18 0 18 1 2 20 -10 11 -21 20 -24 20
-4 0 -5 -9 -2 -20z"/>
<path d="M2675 5140 c3 -5 8 -10 11 -10 2 0 4 5 4 10 0 6 -5 10 -11 10 -5 0
-7 -4 -4 -10z"/>
<path d="M3460 5139 c0 -5 5 -7 10 -4 6 3 10 8 10 11 0 2 -4 4 -10 4 -5 0 -10
-5 -10 -11z"/>
<path d="M30 5130 c0 -5 9 -10 20 -10 11 0 20 5 20 10 0 6 -9 10 -20 10 -11 0
-20 -4 -20 -10z"/>
<path d="M150 5130 c0 -5 5 -10 10 -10 6 0 10 5 10 10 0 6 -4 10 -10 10 -5 0
-10 -4 -10 -10z"/>
<path d="M1176 5125 c-3 -8 -1 -15 4 -15 6 0 10 7 10 15 0 8 -2 15 -4 15 -2 0
-6 -7 -10 -15z"/>
<path d="M3280 5130 c0 -5 5 -10 10 -10 6 0 10 5 10 10 0 6 -4 10 -10 10 -5 0
-10 -4 -10 -10z"/>
<path d="M6435 5131 c-3 -5 -1 -12 5 -16 5 -3 10 1 10 9 0 18 -6 21 -15 7z"/>
<path d="M100 5120 c-8 -5 -10 -10 -5 -10 6 0 17 5 25 10 8 5 11 10 5 10 -5 0
-17 -5 -25 -10z"/>
<path d="M1503 5115 c-3 -9 -3 -18 -1 -21 3 -3 8 4 11 16 6 23 -1 27 -10 5z"/>
<path d="M6326 5117 c3 -10 9 -15 12 -12 3 3 0 11 -7 18 -10 9 -11 8 -5 -6z"/>
<path d="M6370 5107 c0 -15 7 -30 15 -33 8 -4 15 -15 15 -26 0 -10 5 -16 10
-13 14 9 13 56 -2 53 -6 -2 -17 8 -25 22 l-13 25 0 -28z"/>
<path d="M1528 5090 c-3 -16 -1 -30 4 -30 4 0 8 14 8 30 0 17 -2 30 -4 30 -2
0 -6 -13 -8 -30z"/>
<path d="M3110 5109 c0 -5 5 -7 10 -4 6 3 10 8 10 11 0 2 -4 4 -10 4 -5 0 -10
-5 -10 -11z"/>
<path d="M3151 5104 c0 -11 3 -14 6 -6 3 7 2 16 -1 19 -3 4 -6 -2 -5 -13z"/>
<path d="M3520 5110 c0 -6 7 -10 15 -10 8 0 15 2 15 4 0 2 -7 6 -15 10 -8 3
-15 1 -15 -4z"/>
<path d="M15 5090 c-17 -19 -17 -20 0 -20 10 0 24 8 31 18 11 15 15 15 36 3
21 -13 22 -13 9 2 -18 23 -54 21 -76 -3z"/>
<path d="M358 5103 c6 -2 18 -2 25 0 6 3 1 5 -13 5 -14 0 -19 -2 -12 -5z"/>
<path d="M468 5093 c6 -2 18 -2 25 0 6 3 1 5 -13 5 -14 0 -19 -2 -12 -5z"/>
<path d="M546 5092 c-3 -5 27 -10 71 -11 43 -1 75 0 73 2 -11 10 -138 18 -144
9z"/>
<path d="M3175 5089 c-4 -6 -5 -12 -2 -15 2 -3 7 2 10 11 7 17 1 20 -8 4z"/>
<path d="M6240 5075 c0 -8 7 -15 15 -15 8 0 15 4 15 9 0 5 -7 11 -15 15 -9 3
-15 0 -15 -9z"/>
<path d="M6332 5048 c-17 -17 -15 -55 4 -62 30 -11 37 -6 19 14 -14 15 -15 23
-6 34 15 17 -1 30 -17 14z"/>
<path d="M1594 5036 c-3 -8 -4 -29 -2 -48 3 -29 4 -27 8 15 5 48 3 58 -6 33z"/>
<path d="M6145 5030 c-3 -5 -1 -10 4 -10 6 0 11 5 11 10 0 6 -2 10 -4 10 -3 0
-8 -4 -11 -10z"/>
<path d="M6407 4973 c-11 -11 -8 -25 4 -17 6 3 15 0 20 -7 5 -8 9 -9 9 -3 0
15 -25 36 -33 27z"/>
<path d="M3437 4939 c7 -7 15 -10 18 -7 3 3 -2 9 -12 12 -14 6 -15 5 -6 -5z"/>
<path d="M6320 4940 c0 -5 5 -10 11 -10 5 0 7 5 4 10 -3 6 -8 10 -11 10 -2 0
-4 -4 -4 -10z"/>
<path d="M2670 4923 c0 -5 11 -8 25 -8 14 0 25 3 25 8 0 4 -11 7 -25 7 -14 0
-25 -3 -25 -7z"/>
<path d="M3515 4920 c3 -5 14 -10 23 -10 15 0 15 2 2 10 -20 13 -33 13 -25 0z"/>
<path d="M2580 4910 c-9 -6 -10 -10 -3 -10 6 0 15 5 18 10 8 12 4 12 -15 0z"/>
<path d="M6310 4905 c7 -8 17 -12 22 -9 6 4 5 10 -3 15 -22 14 -33 10 -19 -6z"/>
<path d="M3010 4899 c0 -5 5 -7 10 -4 6 3 10 8 10 11 0 2 -4 4 -10 4 -5 0 -10
-5 -10 -11z"/>
<path d="M3198 4903 c6 -2 18 -2 25 0 6 3 1 5 -13 5 -14 0 -19 -2 -12 -5z"/>
<path d="M3258 4903 c7 -3 16 -2 19 1 4 3 -2 6 -13 5 -11 0 -14 -3 -6 -6z"/>
<path d="M3486 4895 c-3 -8 -15 -15 -27 -15 -16 0 -19 -3 -11 -12 6 -7 10 -17
10 -23 0 -5 6 -11 13 -14 8 -2 10 3 6 18 -4 17 -1 21 21 22 15 0 21 3 15 6
-22 8 -14 21 10 16 18 -4 19 -3 7 6 -21 15 -37 14 -44 -4z"/>
<path d="M3603 4903 c9 -2 23 -2 30 0 6 3 -1 5 -18 5 -16 0 -22 -2 -12 -5z"/>
<path d="M3680 4901 c0 -5 -12 -12 -27 -14 l-28 -4 26 -2 c15 0 32 6 39 14 9
10 9 15 1 15 -6 0 -11 -4 -11 -9z"/>
<path d="M3760 4895 c-7 -9 -8 -15 -2 -15 5 0 12 7 16 15 3 8 4 15 2 15 -2 0
-9 -7 -16 -15z"/>
<path d="M2340 4890 c0 -5 5 -10 11 -10 5 0 7 5 4 10 -3 6 -8 10 -11 10 -2 0
-4 -4 -4 -10z"/>
<path d="M3360 4890 c-8 -5 -11 -12 -7 -16 4 -4 15 0 24 9 18 18 8 23 -17 7z"/>
<path d="M3400 4886 c0 -9 -5 -16 -12 -16 -6 0 -9 -2 -6 -5 3 -3 15 -2 27 3
20 7 21 9 7 21 -14 11 -16 11 -16 -3z"/>
<path d="M4714 4887 c-10 -6 -21 -13 -24 -17 -3 -3 -27 -21 -55 -40 -27 -18
-54 -40 -58 -47 -4 -7 -12 -13 -18 -13 -8 0 -64 -35 -79 -50 -10 -10 -46 -30
-92 -51 -26 -12 -46 -25 -43 -29 2 -4 -14 -10 -38 -13 -23 -3 -64 -15 -90 -27
-26 -12 -80 -24 -119 -27 -48 -4 -66 -9 -53 -14 17 -6 15 -8 -12 -14 -28 -6
-33 -12 -33 -36 0 -27 -3 -29 -40 -29 -33 0 -40 -3 -40 -20 0 -17 -7 -20 -40
-20 -34 0 -40 -3 -40 -22 0 -22 -31 -97 -40 -98 -3 0 -12 15 -20 33 -14 32
-14 32 -18 -40 l-3 -73 -39 0 c-29 0 -40 -4 -40 -15 0 -11 11 -15 40 -15 22 0
40 -4 40 -10 0 -5 -18 -10 -40 -10 -29 0 -40 -4 -40 -15 0 -8 -7 -15 -15 -15
-11 0 -15 -11 -15 -40 0 -38 2 -40 30 -40 32 0 40 -14 15 -24 -8 -3 -15 -17
-15 -31 0 -23 -3 -25 -50 -25 l-50 0 0 40 c0 38 -2 40 -30 40 -28 0 -30 2 -30
40 0 29 4 40 15 40 18 0 19 9 4 30 -8 11 -12 12 -16 3 -2 -7 -13 -13 -24 -13
-10 0 -19 -4 -19 -10 0 -5 -9 -10 -20 -10 -11 0 -20 5 -20 10 0 6 9 10 20 10
14 0 20 7 20 21 0 19 4 21 38 14 20 -3 42 -14 49 -23 7 -9 17 -22 23 -29 5 -7
10 -28 10 -48 0 -24 4 -35 15 -35 11 0 15 11 15 40 0 29 -4 40 -15 40 -10 0
-15 10 -15 28 0 15 -5 33 -12 40 -14 14 -108 16 -108 2 0 -5 -9 -10 -20 -10
-11 0 -20 5 -20 10 0 6 -4 10 -10 10 -5 0 -10 -18 -10 -40 l0 -40 -51 0 c-43
0 -50 -3 -47 -17 3 -15 12 -17 61 -15 47 3 57 1 57 -12 0 -12 -10 -16 -40 -16
-38 0 -40 -2 -40 -29 0 -25 -4 -30 -27 -33 -17 -2 -29 -10 -31 -20 -3 -15 4
-18 45 -18 37 -1 44 -3 31 -11 -11 -6 -18 -22 -18 -39 0 -28 -2 -30 -40 -30
-22 0 -40 -4 -40 -10 0 -5 18 -10 40 -10 22 0 40 -4 40 -10 0 -5 -18 -10 -40
-10 -29 0 -40 -4 -40 -15 0 -11 11 -15 40 -15 22 0 40 -3 40 -8 0 -4 -18 -6
-40 -4 -37 4 -40 2 -40 -22 0 -31 -11 -33 -33 -8 -21 23 -21 32 -2 32 12 0 15
21 17 120 1 66 2 128 2 138 1 26 -44 29 -51 3 -3 -12 -13 -21 -23 -21 -10 0
-20 -7 -24 -15 -3 -8 -10 -15 -16 -15 -5 0 -10 7 -10 15 0 8 5 15 10 15 6 0
10 7 10 16 0 9 9 18 20 21 27 7 53 69 45 105 -11 47 5 178 21 178 11 0 14 -18
14 -78 0 -89 15 -134 44 -130 30 5 32 28 2 28 -26 0 -26 0 -26 85 0 86 -18
155 -40 155 -16 0 -40 -63 -40 -105 0 -34 -1 -35 -40 -35 -34 0 -40 3 -40 21
0 11 -5 29 -10 40 -10 17 -7 19 25 19 19 0 35 5 35 10 0 6 7 10 15 10 8 0 15
9 15 20 0 11 -6 20 -14 20 -33 0 -26 77 9 102 7 5 7 8 0 8 -17 0 -32 -14 -39
-37 -4 -13 -14 -23 -22 -23 -8 0 -14 -7 -14 -15 0 -8 -7 -15 -15 -15 -8 0 -15
-6 -15 -13 0 -8 -9 -22 -19 -31 -11 -10 -20 -25 -20 -34 -1 -34 -13 -82 -21
-82 -12 0 -70 -59 -70 -71 0 -5 5 -9 10 -9 7 0 7 -6 0 -19 -5 -11 -10 -47 -10
-80 0 -33 -4 -63 -10 -66 -14 -8 -13 -48 2 -63 14 -14 7 -24 -8 -14 -15 10
-28 82 -14 82 5 0 10 18 10 40 0 38 -2 40 -30 40 -23 0 -30 -4 -30 -20 0 -17
-7 -20 -40 -20 -33 0 -40 3 -40 20 0 13 7 20 20 20 24 0 27 18 4 27 -10 4 -20
0 -26 -10 -5 -10 -16 -17 -23 -17 -19 0 -19 -8 0 -26 19 -19 20 -54 1 -54 -8
0 -16 3 -19 8 -2 4 -2 1 0 -6 1 -8 3 -25 3 -38 0 -17 6 -24 20 -24 11 0 20 -4
20 -10 0 -5 -9 -10 -20 -10 -11 0 -20 5 -20 10 0 6 -8 10 -18 10 -24 0 -46
-42 -38 -73 4 -17 1 -27 -9 -31 -22 -8 -18 -34 6 -41 l21 -7 -21 -15 c-15 -10
-21 -25 -21 -49 0 -38 -15 -74 -30 -74 -6 0 -10 20 -10 44 0 25 -4 47 -8 50
-5 3 -7 19 -4 37 3 22 1 30 -7 25 -6 -4 -11 -14 -11 -21 0 -8 -13 -28 -30 -45
-16 -17 -30 -39 -30 -50 0 -10 -4 -22 -10 -25 -5 -3 -10 -17 -10 -31 0 -14 -7
-27 -15 -30 -8 -4 -15 -15 -15 -25 0 -11 -4 -27 -10 -37 -5 -9 -20 -42 -34
-74 -14 -31 -30 -59 -35 -63 -6 -3 -11 -23 -11 -43 0 -24 -3 -32 -9 -24 -6 10
-17 11 -42 4 l-34 -9 38 -8 c47 -9 50 -34 5 -36 -24 -1 -27 -3 -10 -6 23 -5
28 -25 15 -60 -6 -16 -8 -16 -13 5 -3 13 -9 24 -15 25 -15 3 -19 -45 -4 -53 9
-6 7 -15 -9 -35 -11 -14 -24 -25 -28 -25 -13 3 -24 -25 -24 -62 0 -31 -4 -38
-20 -38 -11 0 -20 5 -20 11 0 6 -7 3 -17 -6 -14 -15 -15 -22 -4 -52 11 -30 11
-37 -4 -53 -11 -12 -14 -26 -9 -44 3 -14 2 -32 -4 -39 -5 -6 -13 -31 -17 -54
-4 -24 -10 -45 -15 -48 -11 -7 -10 -76 1 -97 7 -13 4 -30 -10 -59 -16 -31 -17
-40 -6 -35 9 3 15 0 15 -8 0 -8 -9 -16 -20 -19 -13 -3 -20 -14 -20 -31 0 -18
4 -24 15 -20 20 8 21 -59 0 -79 -12 -13 -12 -17 4 -36 10 -11 21 -18 25 -14
15 15 4 -35 -14 -65 -12 -19 -18 -41 -15 -51 5 -18 50 -27 60 -11 4 7 13 7 25
0 23 -12 23 -12 50 135 27 153 138 581 158 613 9 13 42 6 42 -9 0 -5 5 -9 12
-9 6 0 21 -8 32 -18 12 -10 41 -27 66 -37 25 -11 51 -25 58 -32 7 -7 21 -13
30 -13 30 0 122 -24 122 -32 0 -5 18 -8 40 -8 36 0 40 -3 40 -25 0 -14 -8 -29
-20 -35 -11 -6 -20 -20 -20 -31 0 -12 -9 -33 -19 -48 -14 -19 -21 -48 -23 -92
-2 -42 -7 -63 -15 -62 -13 3 -32 -45 -26 -64 3 -7 13 -13 24 -13 10 0 19 -5
19 -11 0 -6 -7 -9 -15 -5 -20 7 -45 -3 -45 -19 0 -7 -6 -16 -12 -19 -10 -5
-10 -7 0 -12 6 -3 12 -17 12 -31 0 -19 -4 -24 -16 -19 -12 5 -15 2 -10 -10 3
-8 -1 -22 -9 -30 -8 -9 -15 -24 -15 -35 0 -22 -35 -27 -43 -6 -4 7 -6 6 -6 -5
-1 -9 -4 -25 -7 -35 -4 -13 -3 -15 4 -4 7 10 11 11 17 1 5 -8 1 -18 -10 -26
-17 -12 -17 -15 -1 -39 9 -14 12 -25 6 -25 -5 0 -10 -9 -10 -20 0 -11 -7 -20
-15 -20 -8 0 -15 -5 -15 -10 0 -6 7 -13 15 -16 20 -8 19 -27 -4 -41 -10 -6
-21 -25 -24 -42 -4 -18 -13 -31 -22 -31 -8 0 -15 -4 -15 -10 0 -5 6 -10 13
-10 7 0 8 -3 2 -8 -19 -13 -37 -65 -25 -72 6 -4 0 -12 -15 -20 -16 -9 -25 -20
-22 -30 8 -32 -12 -130 -32 -159 -20 -27 -20 -30 -4 -34 17 -4 17 -5 1 -6 -20
-1 -26 -45 -8 -56 7 -4 5 -14 -5 -28 -8 -12 -15 -32 -15 -44 0 -30 -26 -42
-99 -44 -57 -2 -74 -10 -51 -24 12 -7 13 -75 2 -92 -5 -8 -30 -12 -66 -11 -88
3 -86 -9 -42 273 27 175 42 441 26 465 -11 16 -11 14 -12 -65 l-1 -40 -4 38
c-6 57 -25 45 -23 -15 3 -71 -1 -83 -10 -28 l-6 45 -8 -62 c-6 -43 -13 -63
-22 -63 -8 0 -14 -9 -14 -20 0 -13 -7 -20 -19 -20 -11 0 -21 -5 -23 -11 -5
-15 -67 12 -93 41 -18 20 -20 38 -22 197 -1 96 -7 206 -13 245 -8 54 -7 97 4
191 21 168 30 743 12 728 -7 -6 -15 -9 -17 -7 -2 2 -16 6 -31 10 -25 6 -28 4
-28 -21 -1 -16 -7 -50 -14 -78 -11 -44 -17 -50 -41 -53 -19 -3 -24 -6 -15 -12
7 -4 -17 -11 -59 -15 -45 -4 -74 -12 -78 -20 -7 -20 -32 -26 -53 -13 -14 9
-22 10 -31 1 -8 -8 -23 -7 -57 2 -26 8 -87 19 -137 25 -88 11 -142 23 -178 42
-10 5 -22 6 -26 3 -5 -3 -11 2 -15 10 -9 24 -28 18 -21 -6 5 -14 3 -19 -3 -15
-7 4 -10 -4 -7 -25 2 -18 -3 -45 -11 -60 -7 -15 -14 -37 -14 -49 0 -12 -4 -18
-10 -15 -10 6 -14 -7 -11 -33 1 -8 -3 -20 -10 -28 -7 -8 -12 -30 -11 -49 1
-29 -2 -35 -18 -35 -23 0 -24 -4 -9 -32 17 -31 -6 -66 -45 -70 -22 -2 -32 -9
-35 -23 -2 -11 -11 -31 -21 -45 -9 -14 -28 -59 -41 -100 -23 -74 -38 -100 -58
-100 -11 0 -41 -56 -41 -76 0 -7 -8 -21 -19 -31 -10 -10 -24 -35 -32 -55 -7
-21 -16 -38 -20 -38 -4 0 -12 -15 -20 -32 -7 -18 -22 -49 -34 -68 -12 -19 -27
-51 -35 -70 -7 -19 -22 -44 -32 -56 -10 -11 -18 -27 -18 -35 0 -33 -72 -226
-90 -239 -3 -3 -14 -36 -25 -75 -19 -76 -43 -114 -57 -93 -5 9 -8 8 -8 -5 0
-10 -7 -32 -16 -49 -9 -17 -17 -45 -19 -62 -1 -17 -10 -55 -20 -84 -14 -41
-16 -61 -8 -85 7 -23 6 -41 -3 -62 -16 -38 -17 -80 -3 -104 14 -21 4 -91 -13
-91 -7 0 -7 -4 1 -13 6 -8 8 -17 4 -21 -4 -3 -8 -14 -9 -24 -2 -9 -10 -58 -18
-108 -8 -50 -14 -117 -14 -150 1 -33 -1 -65 -5 -71 -7 -11 -4 -46 18 -213 9
-63 16 -147 17 -187 1 -49 6 -74 15 -77 18 -7 16 -26 -2 -26 -8 0 -15 7 -15
16 0 9 -6 14 -12 11 -8 -2 -12 -18 -10 -41 2 -20 -2 -36 -8 -36 -5 0 -10 -18
-10 -39 0 -75 -16 -71 260 -71 219 0 249 2 261 17 11 13 11 17 2 20 -7 3 -13
15 -13 27 0 13 -3 26 -7 30 -4 4 -9 24 -10 44 -1 20 -7 38 -12 40 -20 7 1 153
41 281 5 18 11 59 13 90 3 60 23 206 32 231 3 8 5 34 4 56 -1 23 2 45 8 49 6
3 11 17 11 31 0 14 -3 23 -8 21 -4 -3 -6 30 -4 73 2 45 -1 87 -8 99 -9 18 -4
27 37 67 26 25 63 52 81 61 24 12 31 20 27 34 -6 17 37 123 55 134 4 3 11 17
15 32 3 15 10 30 14 33 7 6 41 110 41 129 0 12 48 77 86 118 12 12 44 50 70
85 27 35 53 68 60 73 6 6 24 28 40 50 16 22 45 57 64 77 52 54 93 101 114 131
10 15 23 27 27 27 5 0 6 -30 3 -68 -2 -37 -5 -101 -5 -142 1 -41 -6 -109 -13
-150 -8 -41 -14 -137 -14 -212 -1 -130 -17 -248 -34 -248 -5 0 -8 -12 -8 -26
0 -19 -4 -25 -15 -21 -8 4 -17 2 -20 -3 -4 -6 4 -10 17 -10 23 0 23 -2 23
-115 0 -106 -2 -116 -22 -130 -15 -11 -23 -29 -27 -67 -13 -113 -11 -106 -57
-328 -10 -52 -19 -130 -19 -173 1 -61 -2 -78 -14 -83 -12 -5 -13 -11 -6 -24 7
-14 6 -23 -5 -34 -8 -8 -12 -21 -9 -29 3 -9 0 -25 -6 -36 -6 -12 -13 -58 -16
-104 -3 -45 -10 -88 -16 -94 -7 -9 -7 -13 1 -13 6 0 11 -11 11 -25 l0 -25 288
0 c211 0 291 3 300 12 8 8 12 9 12 1 0 -7 18 -11 45 -11 38 1 45 4 45 21 0 16
2 17 15 7 9 -7 19 -10 23 -6 9 9 -37 48 -48 41 -5 -3 -12 0 -17 7 -5 9 -9 3
-13 -16 -6 -36 -26 -36 -23 0 2 24 -12 34 -19 12 -3 -7 -12 -4 -27 11 -29 29
-25 65 9 69 19 2 32 16 52 55 34 66 39 89 44 217 4 106 20 228 34 265 4 11 12
31 18 45 5 14 17 61 27 105 9 44 22 109 30 145 7 36 19 121 25 190 6 69 14
139 16 157 l5 32 72 -5 c40 -3 95 -10 122 -16 28 -5 60 -10 73 -10 16 0 22 -6
22 -24 0 -17 6 -24 20 -24 13 0 18 -5 14 -15 -3 -8 -11 -13 -17 -12 -7 1 -12
-4 -12 -10 0 -7 4 -12 8 -10 18 5 29 -38 28 -113 0 -74 1 -79 22 -83 22 -4 22
-4 -1 -6 -16 -1 -26 6 -29 18 -5 21 -33 37 -33 19 0 -6 -9 -3 -20 7 -18 16
-20 16 -26 1 -3 -9 -13 -16 -21 -16 -10 0 -12 -6 -7 -22 3 -13 3 -20 -2 -15
-4 4 -21 -23 -37 -60 -25 -59 -28 -76 -23 -128 16 -166 13 -205 -14 -205 -5 0
-11 8 -13 17 -4 14 -5 14 -6 -3 -1 -18 7 -23 42 -29 70 -13 141 -13 157 -1 36
27 56 34 74 24 15 -9 17 -18 10 -71 -13 -112 -23 -183 -30 -216 -5 -22 -6 -22
-18 -5 -12 16 -17 16 -45 4 -23 -9 -29 -16 -22 -23 6 -6 11 -19 11 -30 0 -18
1 -17 26 2 15 12 30 21 34 21 14 0 8 -81 -6 -87 -11 -4 -11 -7 0 -18 10 -10
12 -39 9 -114 l-4 -101 334 0 334 0 8 37 c4 21 11 153 16 293 5 140 13 282 19
315 5 33 12 80 15 105 3 25 9 56 12 70 7 29 9 45 17 155 3 44 10 121 16 170 6
50 13 153 17 230 3 77 10 141 14 143 5 2 9 38 9 81 0 46 5 82 12 89 7 7 16 38
20 69 5 32 10 65 12 73 1 8 7 33 11 55 4 22 11 45 14 50 12 18 30 79 35 116 2
20 11 50 20 67 9 17 16 40 16 51 0 37 22 121 30 116 4 -3 10 4 13 15 3 11 1
20 -3 20 -9 0 -2 39 10 55 4 6 11 30 15 55 4 25 9 59 12 75 3 17 6 35 7 41 1
7 7 19 14 27 7 8 10 22 6 31 -3 9 -1 16 5 16 7 0 11 6 9 13 -4 20 12 87 21 87
5 0 12 33 16 73 4 39 9 81 12 92 2 11 6 58 7 105 8 193 32 262 78 217 19 -19
194 -46 312 -49 43 -1 59 -6 63 -17 2 -9 11 -29 18 -46 16 -33 18 -235 3 -235
-13 0 -9 -38 5 -43 8 -4 9 -8 2 -14 -20 -15 -39 -91 -27 -106 6 -7 9 -23 6
-34 -4 -15 -1 -23 13 -26 16 -4 16 -6 -4 -12 -13 -4 -20 -12 -17 -17 7 -10
-13 -128 -28 -170 -6 -15 -14 -25 -19 -23 -4 3 -5 -10 -2 -29 5 -31 3 -34 -14
-30 -15 4 -22 -1 -26 -18 -10 -36 -8 -98 3 -98 5 0 10 -35 12 -77 3 -69 1 -80
-19 -100 -13 -12 -20 -28 -17 -37 7 -17 -17 -46 -38 -46 -8 -1 -6 -6 6 -15 20
-15 20 -15 0 -30 -17 -13 -17 -14 -1 -15 20 0 23 -26 3 -37 -7 -4 -16 -26 -20
-48 -3 -22 -8 -49 -10 -60 -2 -11 -5 -32 -5 -47 -1 -15 -8 -33 -16 -42 -8 -8
-15 -23 -15 -34 0 -25 -31 -52 -58 -52 -17 0 -22 -6 -22 -26 0 -19 4 -25 15
-20 10 4 15 -1 15 -14 0 -11 -7 -20 -15 -20 -17 0 -20 -32 -5 -61 6 -11 7 -19
2 -19 -6 0 -12 9 -15 20 -3 11 -10 20 -16 20 -17 0 -26 -31 -11 -40 27 -17 -8
-160 -39 -160 -11 0 -12 -13 -7 -65 6 -58 4 -65 -14 -75 -16 -9 -20 -21 -20
-65 0 -67 -15 -109 -35 -101 -8 3 -15 1 -15 -4 0 -6 7 -10 15 -10 8 0 15 -4
15 -10 0 -5 -6 -10 -14 -10 -19 0 -40 -26 -26 -35 19 -12 12 -63 -10 -70 -11
-3 -20 -14 -20 -23 0 -9 -9 -32 -20 -50 -11 -18 -18 -38 -14 -43 3 -5 1 -8 -5
-7 -5 2 -16 -6 -25 -17 -13 -17 -18 -18 -35 -7 -19 11 -21 10 -21 -8 0 -11 5
-20 11 -20 30 0 53 -58 43 -110 -6 -27 -10 -31 -30 -26 -19 5 -24 2 -24 -14 0
-17 3 -19 19 -11 27 15 32 4 25 -51 -5 -33 -3 -48 5 -48 14 0 15 -37 1 -45 -5
-3 -10 -1 -10 4 0 6 -4 11 -10 11 -15 0 -12 -47 4 -53 14 -6 28 -77 14 -77 -4
0 -8 7 -8 15 0 8 -4 15 -10 15 -15 0 -12 -27 4 -33 8 -3 17 -27 21 -56 4 -28
11 -53 16 -57 5 -3 9 -12 9 -20 0 -15 45 -82 65 -96 5 -4 596 -8 1313 -8
l1302 0 1 23 c1 37 25 92 40 92 8 0 14 9 15 20 0 11 6 33 12 48 7 15 15 39 18
52 3 14 11 25 18 25 6 0 24 14 39 30 29 30 19 44 -10 15 -11 -12 -18 -13 -28
-5 -17 14 0 60 22 60 7 0 13 7 13 15 0 18 -17 20 -22 3 -3 -7 -4 14 -3 46 1
37 7 61 16 67 11 6 11 13 3 26 -9 14 -8 21 5 30 11 9 12 12 3 13 -9 0 -10 5
-2 19 5 11 12 60 14 108 3 85 11 189 21 282 3 25 10 48 16 52 6 4 8 12 5 18
-9 14 2 51 15 51 5 0 9 -7 9 -15 0 -20 16 -19 24 1 10 27 7 44 -9 44 -19 0
-19 -2 6 100 29 117 29 119 39 95 7 -18 8 -17 15 9 5 19 4 31 -5 36 -11 7 -9
17 8 52 11 24 31 76 43 116 13 39 26 72 30 72 5 0 8 31 8 70 0 38 3 79 6 90 9
27 -16 80 -36 80 -14 0 -16 7 -12 40 4 25 2 40 -5 40 -6 0 -12 -6 -14 -12 -3
-7 -8 7 -12 32 -4 24 -12 50 -18 58 -9 10 -9 15 1 22 8 4 10 13 7 19 -4 6 -11
9 -15 6 -12 -7 -21 47 -21 126 0 39 4 69 10 69 6 0 10 -4 10 -10 0 -5 5 -10
11 -10 6 0 8 7 5 16 -5 13 -2 15 16 11 12 -4 27 -2 32 2 6 5 81 14 166 20 85
7 193 17 239 22 70 8 87 7 99 -5 17 -17 9 -34 -22 -46 -22 -8 -22 -9 29 -25 8
-2 15 -16 15 -30 0 -33 22 -32 38 2 15 34 15 56 0 71 -8 8 -8 15 1 25 8 11 11
230 9 885 -3 868 -3 870 -24 894 -12 13 -24 31 -27 41 -4 9 -11 17 -17 17 -6
0 -15 11 -20 25 -6 16 -14 23 -25 19 -11 -5 -14 -2 -9 10 4 10 1 16 -8 16 -7
0 -28 14 -46 30 -18 17 -38 30 -43 30 -6 0 -17 7 -25 15 -9 8 -24 15 -34 15
-10 0 -21 4 -25 10 -3 5 -12 7 -20 4 -8 -3 -29 6 -48 20 -19 14 -38 26 -44 26
-18 0 -46 39 -40 55 4 8 2 15 -3 15 -6 0 -10 6 -10 14 0 8 -8 17 -19 21 -11 3
-21 19 -25 38 -7 31 -7 31 -23 12 -13 -16 -15 -17 -10 -3 4 10 0 23 -9 30 -43
36 -74 76 -80 100 -3 17 -12 28 -22 29 -11 0 -12 2 -4 6 23 9 12 29 -23 42
-19 7 -35 17 -35 22 0 6 -10 8 -22 4 -17 -5 -19 -4 -9 4 12 8 10 12 -12 22
-22 10 -36 8 -89 -11 -35 -13 -66 -27 -69 -32 -3 -5 -19 -12 -35 -17 -16 -6
-65 -24 -109 -41 -126 -50 -311 -80 -500 -81 -111 0 -144 3 -216 24 -46 14
-97 32 -114 41 -16 9 -37 16 -46 16 -9 0 -22 7 -29 15 -7 8 -21 15 -30 15 -29
0 -50 11 -50 26 0 8 -6 14 -14 14 -8 0 -17 6 -20 13 -5 10 -7 10 -12 0 -3 -7
-10 -13 -16 -13 -6 0 -6 6 2 15 13 16 6 35 -14 35 -7 0 -24 10 -37 22 -17 14
-19 19 -6 15 21 -8 21 -1 -3 43 l-19 35 -1 -32 c0 -23 -5 -33 -15 -33 -8 0
-15 -4 -15 -10 0 -5 5 -10 10 -10 6 0 10 -18 10 -40 0 -33 3 -40 20 -40 16 0
20 -7 20 -31 0 -18 7 -38 18 -45 16 -13 16 -15 0 -28 -14 -10 -18 -28 -18 -75
l0 -61 -40 0 -40 0 0 40 c0 36 3 40 25 40 18 0 25 5 25 19 0 10 7 21 15 25 8
3 15 12 15 21 0 11 -11 15 -38 15 -37 0 -40 2 -51 40 -6 22 -16 40 -20 40 -12
0 -21 -26 -21 -56 0 -19 5 -24 25 -24 18 0 25 -5 25 -19 0 -10 -7 -21 -15 -25
-8 -3 -15 -12 -15 -21 0 -9 -9 -15 -25 -15 -16 0 -25 -6 -25 -15 0 -13 -4 -14
-20 -5 -14 7 -26 8 -39 0 -11 -5 -21 -7 -23 -2 -2 4 -21 4 -43 1 -22 -3 -32
-7 -22 -8 9 0 17 -5 17 -10 0 -5 -25 -7 -57 -4 l-58 5 25 -21 c23 -19 24 -21
5 -21 -12 0 -38 -18 -59 -39 l-38 -39 36 -13 c20 -7 36 -16 36 -21 0 -4 -44
-9 -97 -10 -84 -3 -98 -6 -101 -20 -3 -16 5 -18 57 -18 54 0 61 -2 61 -20 0
-11 9 -29 20 -40 11 -11 29 -20 40 -20 27 0 26 34 -1 61 -21 21 -21 22 -3 32
13 7 19 7 22 -1 2 -7 12 -12 23 -12 17 0 19 -8 19 -80 l0 -80 -60 0 c-47 0
-60 3 -60 15 0 11 -11 15 -40 15 -29 0 -40 -4 -40 -15 0 -8 -3 -15 -8 -15 -4
0 -12 -10 -17 -22 -16 -36 -33 -32 -46 11 -11 39 -14 41 -51 41 -37 0 -38 -1
-38 -35 0 -34 -1 -35 -40 -35 l-40 0 0 60 c0 47 3 60 15 60 11 0 15 11 15 40
0 22 5 40 10 40 6 0 10 -18 10 -40 0 -29 4 -40 15 -40 11 0 15 11 15 40 l0 40
40 0 c29 0 40 4 40 15 0 8 -4 15 -10 15 -5 0 -10 4 -10 9 0 6 12 9 27 8 19 -1
28 3 31 16 3 15 -5 17 -57 17 -34 0 -61 4 -61 10 0 6 -20 10 -45 10 -25 0 -45
-4 -45 -10 0 -5 20 -10 44 -10 36 0 45 -4 49 -22 3 -12 4 -25 1 -30 -8 -12
-84 -10 -84 3 0 18 -55 6 -58 -13 -2 -11 3 -18 12 -18 10 0 13 -6 10 -15 -7
-18 -44 -20 -44 -3 0 7 -16 -4 -36 -23 -35 -33 -35 -34 -12 -40 23 -6 22 -6
-4 -14 -35 -9 -37 -40 -4 -49 21 -5 25 -13 28 -57 3 -54 -4 -68 -27 -49 -8 6
-18 10 -22 7 -4 -3 -6 19 -5 49 l4 54 -41 0 c-23 0 -41 -4 -41 -10 0 -5 7 -10
15 -10 8 0 15 -4 15 -10 0 -9 -14 -14 -33 -11 -14 2 -20 -30 -9 -52 17 -36 20
-87 5 -87 -9 0 -13 13 -13 40 0 22 -4 40 -10 40 -5 0 -10 14 -10 30 0 17 -4
30 -8 30 -15 0 -32 -24 -32 -47 0 -13 -4 -23 -10 -23 -14 0 -12 -28 2 -32 9
-3 7 -14 -5 -40 -9 -20 -17 -46 -17 -59 l0 -22 -24 22 c-14 13 -27 35 -29 50
-2 14 -4 9 -3 -13 1 -29 -4 -41 -19 -50 -31 -17 -35 -27 -35 -98 0 -39 -4 -68
-10 -68 -5 0 -10 7 -10 15 0 10 -7 15 -17 13 -12 -2 -19 6 -23 27 -6 31 16
105 32 105 4 0 8 10 8 23 0 12 6 32 14 43 8 11 17 37 21 57 4 20 11 37 16 37
15 0 10 37 -6 50 -8 7 -15 16 -15 21 0 5 7 9 15 9 8 0 15 -7 15 -15 0 -8 4
-15 8 -15 10 0 72 108 72 126 0 8 5 14 10 14 6 0 10 11 10 25 0 15 -6 25 -15
25 -9 0 -12 6 -9 15 4 8 10 15 15 15 5 0 9 -7 9 -15 0 -24 13 -17 39 20 13 19
27 35 32 35 4 0 23 15 41 33 18 18 47 39 63 47 17 8 35 22 42 30 6 8 15 12 19
8 4 -5 22 3 40 17 18 14 40 25 48 25 9 0 16 5 16 10 0 6 9 10 21 10 35 0 143
31 159 45 8 7 27 17 42 20 16 4 25 11 22 16 -3 5 5 9 18 9 13 0 50 14 82 30
32 17 65 30 72 30 8 0 14 5 14 10 0 6 6 10 13 10 7 0 28 11 47 25 l34 25 -32
0 c-18 0 -32 4 -32 10 0 5 21 8 50 5 38 -3 54 1 72 15 13 11 19 19 14 20 -5 0
-18 -7 -28 -17 -20 -18 -25 -4 -6 15 7 7 9 12 5 12 -3 0 -15 -10 -27 -22 -22
-24 -32 -20 -36 17 -4 37 -26 55 -50 42z m26 -25 c0 -8 -53 -42 -66 -42 -4 0
6 13 22 28 27 27 44 32 44 14z m-30 -77 c7 -8 8 -15 2 -15 -5 0 -15 7 -22 15
-7 8 -8 15 -2 15 5 0 15 -7 22 -15z m-70 -15 c0 -5 -2 -10 -4 -10 -3 0 -8 5
-11 10 -3 6 -1 10 4 10 6 0 11 -4 11 -10z m50 -20 c0 -5 -7 -10 -15 -10 -8 0
-15 5 -15 10 0 6 7 10 15 10 8 0 15 -4 15 -10z m-95 -20 c3 -5 1 -10 -4 -10
-6 0 -11 5 -11 10 0 6 2 10 4 10 3 0 8 -4 11 -10z m1905 -34 c0 -3 -4 -8 -10
-11 -5 -3 -10 -1 -10 4 0 6 5 11 10 11 6 0 10 -2 10 -4z m-2100 -76 c0 -5 -2
-10 -4 -10 -3 0 -8 5 -11 10 -3 6 -1 10 4 10 6 0 11 -4 11 -10z m-160 -40 c0
-5 -5 -10 -11 -10 -5 0 -7 5 -4 10 3 6 8 10 11 10 2 0 4 -4 4 -10z m-76 -35
c4 -13 2 -14 -14 -5 -23 13 -26 20 -6 20 8 0 16 -7 20 -15z m1431 5 c-3 -5
-15 -10 -25 -10 -10 0 -22 5 -25 10 -4 6 7 10 25 10 18 0 29 -4 25 -10z m-802
-67 c-31 -6 -29 -19 4 -28 25 -6 26 -8 10 -17 -14 -7 -23 -6 -36 6 -22 20 -51
21 -51 1 0 -9 -6 -12 -15 -9 -8 4 -15 14 -15 24 0 20 22 27 85 27 22 0 30 -2
18 -4z m-760 -23 c-18 -11 -33 -24 -33 -30 0 -5 -7 -10 -15 -10 -8 0 -15 9
-15 20 0 11 7 20 15 20 8 0 15 5 15 10 0 6 15 10 33 10 l32 0 -32 -20z m847
-50 c0 -5 -7 -10 -16 -10 -8 0 -12 5 -9 10 3 6 10 10 16 10 5 0 9 -4 9 -10z
m-920 -20 c-20 -13 -40 -13 -40 0 0 6 12 10 28 10 21 0 24 -2 12 -10z m760
-15 c0 -18 -4 -23 -15 -19 -8 4 -15 15 -15 25 0 10 7 19 15 19 9 0 15 -9 15
-25z m-880 -95 c0 -11 -7 -20 -15 -20 -8 0 -15 9 -15 20 0 11 7 20 15 20 8 0
15 -9 15 -20z m-800 -55 c0 -8 -2 -15 -4 -15 -2 0 -6 7 -10 15 -3 8 -1 15 4
15 6 0 10 -7 10 -15z m160 -25 c0 -22 -4 -40 -10 -40 -5 0 -10 18 -10 40 0 22
5 40 10 40 6 0 10 -18 10 -40z m-130 -31 c0 -5 -7 -9 -15 -9 -8 0 -15 7 -15
15 0 9 6 12 15 9 8 -4 15 -10 15 -15z m1570 -44 c0 -11 -11 -15 -40 -15 -29 0
-40 4 -40 15 0 11 11 15 40 15 29 0 40 -4 40 -15z m-240 -20 c0 -16 -6 -25
-15 -25 -28 0 -18 40 13 49 1 1 2 -10 2 -24z m-1516 -51 c4 -15 5 -29 1 -32
-3 -3 -5 0 -5 6 0 7 -16 12 -40 12 -33 0 -40 3 -40 20 0 17 7 20 39 20 34 0
40 -4 45 -26z m596 -14 c0 -33 -3 -40 -20 -40 -11 0 -20 5 -20 10 0 6 -7 10
-15 10 -8 0 -15 9 -15 20 0 11 7 20 15 20 8 0 15 5 15 10 0 6 9 10 20 10 17 0
20 -7 20 -40z m849 -20 c-49 -44 -54 -46 -75 -26 -18 18 -18 26 1 26 8 0 19 9
26 21 7 14 17 19 29 16 11 -3 25 2 31 9 8 10 15 12 22 5 7 -7 -4 -24 -34 -51z
m313 20 l4 -40 -43 0 -43 0 0 40 c0 40 0 40 39 40 38 0 39 -1 43 -40z m-1522
-47 c-1 -37 -1 -38 -14 -14 -14 25 -11 51 5 51 5 0 9 -17 9 -37z m960 -23 c0
-16 -5 -30 -10 -30 -14 0 -24 26 -16 45 10 26 26 16 26 -15z m40 20 c0 -5 -2
-10 -4 -10 -3 0 -8 5 -11 10 -3 6 -1 10 4 10 6 0 11 -4 11 -10z m357 -36 c-2
-2 -12 -1 -22 2 -17 7 -17 8 1 21 17 12 19 12 22 -2 2 -9 2 -19 -1 -21z m-797
4 c0 -16 -3 -19 -11 -11 -6 6 -8 16 -5 22 11 17 16 13 16 -11z m515 -38 c0 -8
-8 -16 -17 -18 -13 -2 -18 3 -18 18 0 15 5 20 18 18 9 -2 17 -10 17 -18z
m-365 -46 c0 -8 -4 -14 -10 -14 -5 0 -10 9 -10 21 0 11 5 17 10 14 6 -3 10
-13 10 -21z m250 -4 c0 -5 -2 -10 -4 -10 -3 0 -8 5 -11 10 -3 6 -1 10 4 10 6
0 11 -4 11 -10z m-881 -106 c2 -2 -23 -4 -57 -4 -35 0 -62 4 -62 10 0 9 108 3
119 -6z m521 -8 c0 -11 -19 -15 -25 -6 -3 5 1 10 9 10 9 0 16 -2 16 -4z m-7
-78 c-7 -16 -7 -30 0 -46 8 -17 8 -25 -1 -31 -8 -5 -6 -16 8 -39 18 -29 19
-36 6 -59 -13 -25 -14 -25 -24 -7 -5 10 -10 23 -11 28 -1 13 -31 17 -31 5 0
-5 5 -9 12 -9 9 0 9 -3 1 -11 -7 -7 -18 -9 -26 -6 -14 5 -13 15 10 145 3 17 9
32 14 32 5 0 9 6 9 14 0 17 21 27 34 15 6 -5 5 -17 -1 -31z m-1093 -8 c0 -5
-7 -10 -15 -10 -8 0 -15 5 -15 10 0 6 7 10 15 10 8 0 15 -4 15 -10z m1026
-214 c-4 -20 -2 -37 4 -41 5 -3 10 -18 9 -33 l-1 -27 -7 25 c-5 17 -9 21 -15
12 -4 -7 -4 -21 -1 -32 4 -11 2 -20 -4 -20 -6 0 -11 -8 -11 -17 0 -10 -4 -24
-9 -32 -8 -12 -12 -12 -25 -2 -22 18 -20 38 9 95 14 27 25 59 25 71 0 23 8 35
23 35 5 0 6 -15 3 -34z m31 -128 c-3 -8 -6 -5 -6 6 -1 11 2 17 5 13 3 -3 4
-12 1 -19z m-1440 -230 c-3 -8 -6 -5 -6 6 -1 11 2 17 5 13 3 -3 4 -12 1 -19z
m47 -73 c-4 -8 -10 -12 -15 -9 -14 8 -10 24 6 24 9 0 12 -6 9 -15z m-634 -25
c0 -5 -4 -10 -10 -10 -5 0 -10 5 -10 10 0 6 5 10 10 10 6 0 10 -4 10 -10z
m-26 -25 c3 -9 0 -15 -9 -15 -8 0 -15 7 -15 15 0 8 4 15 9 15 5 0 11 -7 15
-15z m36 -225 c0 -5 -2 -10 -4 -10 -3 0 -8 5 -11 10 -3 6 -1 10 4 10 6 0 11
-4 11 -10z m1300 -122 c0 -14 -8 -18 -40 -18 -44 0 -47 5 -25 37 13 19 19 21
40 11 14 -6 25 -19 25 -30z m-73 -80 c-3 -7 -5 -2 -5 12 0 14 2 19 5 13 2 -7
2 -19 0 -25z m-1235 0 c-9 -9 -15 -9 -24 0 -9 9 -7 12 12 12 19 0 21 -3 12
-12z m1228 -44 c0 -8 -5 -12 -10 -9 -6 4 -8 11 -5 16 9 14 15 11 15 -7z m26
-69 c44 -18 40 -39 -9 -43 -39 -3 -55 13 -43 43 7 18 8 18 52 0z m-22 -111 c9
-25 7 -34 -8 -34 -19 0 -29 17 -22 35 7 20 22 19 30 -1z m20 -82 c-6 -4 -15
-17 -19 -30 -9 -31 -40 -25 -40 8 0 16 6 26 19 28 13 3 16 0 11 -9 -5 -8 -4
-10 3 -5 7 4 12 15 12 24 0 13 3 13 12 4 9 -9 10 -15 2 -20z m-369 -1307 c1
-70 -9 -95 -34 -88 -14 4 -21 1 -21 -10 0 -22 -61 -7 -70 18 -9 24 15 59 48
69 14 5 22 15 22 31 0 24 14 35 40 32 10 -2 14 -16 15 -52z m-5 -150 c0 -8 6
-15 13 -15 21 0 49 -36 45 -57 -5 -25 -41 -28 -61 -5 -10 11 -21 36 -24 56 -4
29 -2 36 11 36 9 0 16 -7 16 -15z m1085 -135 c3 -5 1 -10 -4 -10 -6 0 -11 5
-11 10 0 6 2 10 4 10 3 0 8 -4 11 -10z m-2842 -505 c4 -8 2 -17 -3 -20 -6 -4
-10 3 -10 14 0 25 6 27 13 6z"/>
<path d="M2482 900 c0 -14 2 -19 5 -12 2 6 2 18 0 25 -3 6 -5 1 -5 -13z"/>
<path d="M6230 4890 c0 -6 7 -10 15 -10 8 0 15 2 15 4 0 2 -7 6 -15 10 -8 3
-15 1 -15 -4z"/>
<path d="M2716 4881 c-3 -4 6 -8 20 -9 13 -1 24 0 24 2 0 7 -40 14 -44 7z"/>
<path d="M2914 4878 c-3 -4 4 -8 15 -8 11 0 22 4 25 8 2 4 -4 8 -15 8 -11 0
-23 -4 -25 -8z"/>
<path d="M3570 4886 c0 -2 9 -6 20 -9 11 -3 18 -1 14 4 -5 9 -34 13 -34 5z"/>
<path d="M3546 4861 c-4 -5 -2 -12 3 -15 5 -4 12 -2 15 3 4 5 2 12 -3 15 -5 4
-12 2 -15 -3z"/>
<path d="M3410 4856 c0 -2 7 -9 15 -16 9 -7 15 -8 15 -2 0 5 -7 12 -15 16 -8
3 -15 4 -15 2z"/>
<path d="M2347 4830 c-20 -24 -55 -26 -63 -5 -9 22 -23 18 -21 -4 1 -22 31
-33 65 -24 26 6 29 -5 5 -23 -23 -16 -15 -24 20 -17 22 4 27 10 26 32 -1 14 0
32 2 40 6 22 -15 23 -34 1z"/>
<path d="M2410 4840 c-13 -9 -13 -11 0 -20 10 -6 11 -10 3 -10 -7 0 -13 -10
-12 -22 0 -22 1 -22 9 -3 6 15 8 9 8 -25 0 -25 -3 -35 -5 -22 -7 33 -33 28
-34 -8 -1 -16 -2 -35 -3 -42 -1 -6 5 -13 12 -15 7 -3 12 4 12 16 0 25 20 28
21 4 0 -10 6 -2 13 17 8 24 9 44 3 64 -7 21 -6 30 4 37 12 7 12 9 0 9 -7 0
-11 6 -7 15 6 17 -2 19 -24 5z"/>
<path d="M2551 4841 c-8 -5 -9 -11 -3 -15 5 -3 15 1 22 9 14 16 3 20 -19 6z"/>
<path d="M3010 4820 c-23 -7 -23 -8 -3 -9 12 -1 25 4 28 9 3 6 5 10 3 9 -2 -1
-14 -5 -28 -9z"/>
<path d="M3268 4813 c-10 -2 -18 -9 -18 -14 0 -14 20 -11 36 6 16 15 13 16
-18 8z"/>
<path d="M3346 4811 c-19 -7 -19 -8 0 -13 13 -3 21 0 21 8 0 8 -1 14 -1 13 -1
0 -10 -4 -20 -8z"/>
<path d="M4940 4791 c0 -17 5 -33 10 -36 6 -4 10 8 10 29 0 20 -4 36 -10 36
-5 0 -10 -13 -10 -29z"/>
<path d="M2063 4803 c-7 -2 -13 -9 -13 -15 0 -7 5 -7 13 1 8 6 16 8 19 5 3 -3
9 -1 13 5 6 11 -10 13 -32 4z"/>
<path d="M2955 4799 c-4 -6 -5 -12 -2 -15 2 -3 7 2 10 11 7 17 1 20 -8 4z"/>
<path d="M2555 4780 c2 -14 5 -28 5 -32 0 -3 9 -4 20 -1 13 3 20 14 20 29 0
28 -15 32 -25 7 -7 -17 -8 -16 -16 2 -8 17 -9 16 -4 -5z"/>
<path d="M2730 4775 c-11 -13 -10 -14 4 -9 9 3 16 10 16 15 0 13 -6 11 -20 -6z"/>
<path d="M3305 4780 c-4 -6 3 -10 14 -10 25 0 27 6 6 13 -8 4 -17 2 -20 -3z"/>
<path d="M2185 4769 c-10 -15 3 -25 16 -12 7 7 7 13 1 17 -6 3 -14 1 -17 -5z"/>
<path d="M2090 4756 c0 -8 -3 -21 -6 -30 -3 -9 -2 -16 3 -16 5 0 14 14 20 30
9 25 9 30 -3 30 -8 0 -14 -6 -14 -14z"/>
<path d="M2146 4746 c-15 -23 -14 -25 14 -34 23 -8 30 -7 34 5 8 21 8 21 -11
19 -12 -1 -17 5 -15 17 4 24 -3 21 -22 -7z"/>
<path d="M2065 4750 c-3 -5 -1 -10 4 -10 6 0 11 5 11 10 0 6 -2 10 -4 10 -3 0
-8 -4 -11 -10z"/>
<path d="M2013 4735 c15 -15 12 -50 -4 -61 -5 -3 -9 -30 -9 -60 0 -54 0 -54
-31 -54 -17 0 -37 -7 -46 -16 -9 -8 -22 -13 -30 -10 -14 6 -39 -41 -28 -52 3
-4 8 4 12 16 3 12 9 22 15 22 13 0 -6 -31 -35 -59 -15 -13 -23 -30 -20 -40 4
-13 3 -14 -6 -1 -5 8 -13 11 -17 7 -4 -3 -1 -14 6 -22 11 -13 11 -19 -3 -33
-16 -15 -17 -15 -17 1 0 9 5 17 11 17 5 0 7 5 4 10 -10 16 -22 11 -28 -12 -7
-26 9 -49 29 -41 8 3 14 2 14 -2 0 -10 -27 -35 -39 -35 -6 0 -11 -9 -11 -20 0
-19 -9 -40 -32 -80 -5 -8 -11 -23 -14 -32 -5 -13 -11 -15 -30 -8 -22 9 -23 8
-12 -10 7 -10 9 -23 5 -27 -5 -4 -12 -1 -16 6 -7 10 -10 10 -16 1 -4 -6 -2
-17 4 -23 14 -14 15 -47 1 -47 -5 0 -10 -4 -10 -10 0 -5 17 -10 38 -10 44 0
196 -52 226 -77 50 -42 54 -52 39 -95 -17 -49 -12 -57 16 -27 12 13 21 18 21
12 0 -10 18 -9 56 2 7 2 8 21 4 54 -3 28 -3 51 2 51 4 0 8 7 8 15 0 8 5 15 10
15 6 0 10 5 10 11 0 5 -3 8 -7 6 -5 -2 -21 3 -38 13 -26 15 -30 22 -30 61 0
27 -5 44 -12 44 -6 0 -15 3 -18 7 -8 8 -8 153 0 273 3 50 2 60 -4 35 l-8 -35
-2 37 c-1 33 3 40 32 55 17 10 37 18 42 18 35 1 48 47 18 64 -15 9 -16 12 -3
20 8 5 18 7 22 5 4 -3 8 0 8 6 0 7 -9 14 -19 17 -16 4 -18 9 -10 30 5 13 9 29
9 34 0 15 -39 49 -56 49 -14 0 -14 -2 -1 -15z m-66 -302 c-3 -10 -5 -2 -5 17
0 19 2 27 5 18 2 -10 2 -26 0 -35z m-30 21 c-3 -3 -12 -4 -19 -1 -8 3 -5 6 6
6 11 1 17 -2 13 -5z m50 -76 c-3 -8 -6 -5 -6 6 -1 11 2 17 5 13 3 -3 4 -12 1
-19z m-30 -90 c-3 -8 -6 -5 -6 6 -1 11 2 17 5 13 3 -3 4 -12 1 -19z m-106 -6
c-7 -2 -18 1 -23 6 -8 8 -4 9 13 5 13 -4 18 -8 10 -11z m-16 -22 c3 -5 -1 -10
-10 -10 -9 0 -13 5 -10 10 3 6 8 10 10 10 2 0 7 -4 10 -10z m-55 -110 c0 -5
-2 -10 -4 -10 -3 0 -8 5 -11 10 -3 6 -1 10 4 10 6 0 11 -4 11 -10z"/>
<path d="M2850 4740 c0 -5 4 -10 9 -10 6 0 13 5 16 10 3 6 -1 10 -9 10 -9 0
-16 -4 -16 -10z"/>
<path d="M1905 4721 c-3 -5 -1 -12 5 -16 5 -3 10 1 10 9 0 18 -6 21 -15 7z"/>
<path d="M2300 4710 c-17 -32 -9 -74 15 -78 15 -2 17 -1 6 6 -9 6 -12 23 -9
51 4 47 3 49 -12 21z"/>
<path d="M2534 4717 c-3 -8 -4 -47 -2 -88 l3 -74 5 88 c5 87 4 99 -6 74z"/>
<path d="M2630 4710 c13 -9 13 -11 0 -19 -8 -6 -11 -13 -7 -17 11 -12 30 13
24 30 -4 9 -12 16 -19 16 -9 0 -9 -3 2 -10z"/>
<path d="M3110 4710 c-9 -6 -10 -10 -3 -10 6 0 15 5 18 10 8 12 4 12 -15 0z"/>
<path d="M1922 4682 c-6 -14 -12 -35 -11 -46 0 -12 3 -15 6 -8 2 6 13 12 24
12 21 0 25 15 8 26 -8 5 -8 8 0 14 9 5 9 10 -1 18 -10 8 -16 4 -26 -16z"/>
<path d="M2560 4700 c0 -5 5 -10 10 -10 6 0 10 5 10 10 0 6 -4 10 -10 10 -5 0
-10 -4 -10 -10z"/>
<path d="M2080 4690 c0 -5 5 -10 11 -10 5 0 7 5 4 10 -3 6 -8 10 -11 10 -2 0
-4 -4 -4 -10z"/>
<path d="M2136 4684 c-3 -9 -2 -23 4 -32 5 -10 10 -15 10 -12 11 53 1 83 -14
44z"/>
<path d="M3030 4689 c0 -5 11 -9 25 -9 14 0 25 2 25 4 0 2 -11 6 -25 8 -14 3
-25 1 -25 -3z"/>
<path d="M2167 4683 c-13 -12 -7 -23 11 -23 10 0 23 -5 29 -11 8 -8 13 -7 18
2 13 21 -40 50 -58 32z"/>
<path d="M2748 4659 c-10 -11 -16 -19 -14 -19 2 0 12 -3 22 -7 11 -4 15 -3 11
4 -4 6 -1 13 5 16 9 3 10 8 3 14 -7 7 -16 4 -27 -8z"/>
<path d="M3751 4654 c0 -11 3 -14 6 -6 3 7 2 16 -1 19 -3 4 -6 -2 -5 -13z"/>
<path d="M3788 4641 c1 -2 -5 -15 -13 -28 -15 -22 -14 -24 7 -32 19 -7 22 -14
19 -54 -2 -42 0 -47 18 -47 19 0 21 6 21 51 0 45 2 50 18 44 9 -5 46 -10 82
-12 l65 -3 -70 19 c-38 11 -79 20 -90 20 -10 1 -28 11 -40 24 -11 12 -19 21
-17 18z"/>
<path d="M2266 4632 c-3 -6 -1 -14 5 -17 15 -10 25 3 12 16 -7 7 -13 7 -17 1z"/>
<path d="M2951 4628 c-1 -22 18 -33 32 -19 9 9 8 11 -5 6 -11 -4 -18 0 -21 12
-4 15 -5 16 -6 1z"/>
<path d="M1880 4621 c0 -5 6 -14 14 -21 8 -6 12 -19 9 -28 -4 -13 -3 -14 6 -6
9 8 9 17 0 37 -12 26 -29 37 -29 18z"/>
<path d="M2340 4620 c0 -5 5 -10 10 -10 6 0 10 5 10 10 0 6 -4 10 -10 10 -5 0
-10 -4 -10 -10z"/>
<path d="M1850 4613 c0 -13 29 -38 35 -31 3 3 -4 13 -15 23 -11 10 -20 13 -20
8z"/>
<path d="M2921 4604 c0 -11 3 -14 6 -6 3 7 2 16 -1 19 -3 4 -6 -2 -5 -13z"/>
<path d="M2375 4600 c-3 -6 1 -7 9 -4 18 7 21 14 7 14 -6 0 -13 -4 -16 -10z"/>
<path d="M3450 4600 c0 -5 5 -10 10 -10 6 0 10 5 10 10 0 6 -4 10 -10 10 -5 0
-10 -4 -10 -10z"/>
<path d="M2565 4590 c-3 -6 1 -7 9 -4 9 3 16 1 16 -4 0 -6 -9 -13 -19 -17 -14
-4 -18 -11 -14 -23 6 -13 8 -13 11 -1 3 7 12 19 20 25 8 6 12 16 8 22 -9 15
-23 15 -31 2z"/>
<path d="M2845 4579 c-4 -6 -5 -12 -2 -15 2 -3 7 2 10 11 7 17 1 20 -8 4z"/>
<path d="M2110 4550 c0 -5 7 -7 15 -4 8 4 15 8 15 10 0 2 -7 4 -15 4 -8 0 -15
-4 -15 -10z"/>
<path d="M2306 4538 c-3 -13 2 -18 14 -18 11 0 22 -5 26 -11 4 -7 21 -9 45 -5
21 3 40 2 44 -4 10 -16 27 -11 23 7 -4 19 -48 29 -59 12 -5 -8 -8 -8 -13 0 -4
6 -2 11 3 11 6 0 11 4 11 9 0 5 -20 11 -44 13 -36 2 -46 0 -50 -14z"/>
<path d="M3490 4556 c0 -2 7 -6 15 -10 8 -3 15 -1 15 4 0 6 -7 10 -15 10 -8 0
-15 -2 -15 -4z"/>
<path d="M2145 4540 c-3 -5 1 -10 10 -10 9 0 13 5 10 10 -3 6 -8 10 -10 10 -2
0 -7 -4 -10 -10z"/>
<path d="M2270 4540 c0 -5 5 -10 10 -10 6 0 10 5 10 10 0 6 -4 10 -10 10 -5 0
-10 -4 -10 -10z"/>
<path d="M2878 4533 c-10 -2 -18 -8 -18 -13 0 -12 28 -6 42 8 12 12 7 13 -24
5z"/>
<path d="M2185 4520 c3 -5 13 -10 21 -10 8 0 12 5 9 10 -3 6 -13 10 -21 10 -8
0 -12 -4 -9 -10z"/>
<path d="M2532 4505 c0 -16 2 -22 5 -12 2 9 2 23 0 30 -3 6 -5 -1 -5 -18z"/>
<path d="M3680 4510 c0 -17 7 -20 40 -20 33 0 40 3 40 20 0 17 -7 20 -40 20
-33 0 -40 -3 -40 -20z"/>
<path d="M2243 4495 c1 -11 6 -25 10 -32 4 -6 3 -14 -2 -17 -5 -4 -12 0 -15 6
-3 7 -4 4 -1 -8 6 -23 -34 -52 -55 -39 -7 4 -16 1 -21 -6 -13 -20 -11 -29 5
-23 7 3 30 -1 49 -10 35 -14 36 -14 44 7 9 29 10 33 12 57 1 15 9 20 29 21 20
1 22 2 7 6 -11 3 -30 17 -42 32 -20 23 -22 23 -20 6z m-3 -105 c0 -5 -5 -10
-11 -10 -5 0 -7 5 -4 10 3 6 8 10 11 10 2 0 4 -4 4 -10z"/>
<path d="M2753 4503 c-18 -7 -16 -23 2 -23 8 0 15 7 15 15 0 8 -1 15 -2 14 -2
0 -9 -3 -15 -6z"/>
<path d="M3350 4490 c0 -5 -7 -10 -15 -10 -8 0 -24 -9 -35 -20 l-20 -20 20
-20 c11 -11 30 -20 43 -20 20 1 20 2 5 11 -24 13 -23 46 1 59 11 5 44 10 73
10 38 0 49 3 38 10 -20 13 -110 13 -110 0z"/>
<path d="M3575 4490 c-3 -5 1 -10 9 -10 9 0 16 5 16 10 0 6 -4 10 -9 10 -6 0
-13 -4 -16 -10z"/>
<path d="M4480 4490 c0 -5 7 -10 16 -10 8 0 12 5 9 10 -3 6 -10 10 -16 10 -5
0 -9 -4 -9 -10z"/>
<path d="M2785 4480 c-3 -5 -1 -10 4 -10 6 0 11 5 11 10 0 6 -2 10 -4 10 -3 0
-8 -4 -11 -10z"/>
<path d="M2600 4463 c0 -10 -3 -29 -5 -43 -5 -22 -3 -21 9 5 18 36 20 55 6 55
-5 0 -10 -8 -10 -17z"/>
<path d="M3520 4450 c0 -30 13 -40 25 -20 8 13 -4 50 -16 50 -5 0 -9 -13 -9
-30z"/>
<path d="M3575 4450 c-8 -13 4 -50 16 -50 5 0 9 14 9 30 0 30 -13 40 -25 20z"/>
<path d="M4500 4441 c-16 -32 -12 -41 20 -41 17 0 30 5 30 11 0 16 -20 49 -30
49 -5 0 -14 -9 -20 -19z"/>
<path d="M2333 4438 c2 -8 17 -12 35 -10 18 2 32 -1 32 -7 0 -6 -6 -11 -12
-11 -9 0 -10 -3 -2 -8 6 -4 14 -24 18 -44 4 -24 12 -38 22 -38 8 0 12 -5 9
-10 -4 -7 -12 -7 -25 0 -27 14 -32 12 -19 -8 13 -21 69 -18 69 4 0 8 -5 14
-10 14 -13 0 -31 46 -32 82 -1 17 -9 30 -25 37 -33 15 -66 14 -60 -1z"/>
<path d="M2084 4426 c23 -18 36 -20 36 -6 0 6 -4 10 -9 10 -5 0 -18 3 -28 6
-16 5 -16 4 1 -10z"/>
<path d="M2812 4408 c-12 -18 -18 -35 -15 -38 3 -3 8 1 11 9 2 7 13 21 23 29
20 18 25 32 10 32 -5 0 -18 -15 -29 -32z"/>
<path d="M2672 4380 c-23 -41 -17 -54 10 -22 11 13 23 62 15 62 -1 0 -12 -18
-25 -40z"/>
<path d="M3025 4410 c-3 -5 -1 -10 4 -10 6 0 11 5 11 10 0 6 -2 10 -4 10 -3 0
-8 -4 -11 -10z"/>
<path d="M3644 4385 c-4 -8 -15 -15 -25 -15 -10 0 -19 -7 -19 -15 0 -11 -11
-15 -40 -15 -22 0 -40 -4 -40 -10 0 -6 33 -10 80 -10 l80 0 0 40 c0 29 -4 40
-15 40 -9 0 -18 -7 -21 -15z"/>
<path d="M4160 4384 c0 -8 5 -12 10 -9 6 3 10 10 10 16 0 5 -4 9 -10 9 -5 0
-10 -7 -10 -16z"/>
<path d="M1591 4364 c0 -11 3 -14 6 -6 3 7 2 16 -1 19 -3 4 -6 -2 -5 -13z"/>
<path d="M2590 4360 c0 -5 5 -10 11 -10 5 0 7 5 4 10 -3 6 -8 10 -11 10 -2 0
-4 -4 -4 -10z"/>
<path d="M2270 4350 c0 -5 5 -10 10 -10 6 0 10 5 10 10 0 6 -4 10 -10 10 -5 0
-10 -4 -10 -10z"/>
<path d="M2736 4351 c-4 -7 -5 -15 -2 -18 9 -9 19 4 14 18 -4 11 -6 11 -12 0z"/>
<path d="M2470 4333 c0 -10 4 -14 8 -8 4 6 11 13 16 18 5 4 2 7 -7 7 -10 0
-17 -8 -17 -17z"/>
<path d="M2040 4305 c0 -19 5 -35 10 -35 6 0 10 5 10 10 0 6 9 10 20 10 22 0
27 -16 8 -22 -15 -5 -1 -28 17 -28 9 0 12 6 8 16 -11 28 31 11 45 -19 15 -31
20 -32 55 -14 20 11 23 17 15 25 -18 18 5 15 28 -4 13 -11 15 -17 7 -20 -7 -3
-13 -13 -13 -21 0 -15 -47 -63 -62 -63 -4 0 -19 -11 -34 -25 -18 -17 -24 -29
-18 -35 11 -11 104 -40 140 -44 11 -1 24 -5 30 -8 5 -3 26 -9 48 -12 21 -4 47
-13 57 -19 23 -14 26 -42 4 -33 -9 3 -15 0 -15 -9 0 -8 7 -15 15 -15 10 0 15
-11 16 -32 1 -31 2 -30 11 10 5 24 16 46 24 49 24 9 16 20 -21 27 -28 6 -35
11 -35 31 0 36 19 41 26 6 8 -38 16 -39 43 -5 21 27 21 74 0 132 -6 16 -5 22
6 22 10 0 15 10 15 28 0 20 -3 23 -9 13 -7 -11 -13 -12 -23 -4 -19 15 -88 26
-101 15 -8 -6 -39 3 -92 28 -91 42 -142 60 -172 60 -12 0 -24 6 -26 13 -3 6
-6 2 -6 -11 -1 -13 -5 -21 -11 -17 -5 3 -7 12 -3 20 3 8 0 15 -6 15 -6 0 -11
-16 -11 -35z m95 -5 c-3 -5 -10 -10 -16 -10 -5 0 -9 5 -9 10 0 6 7 10 16 10 8
0 12 -4 9 -10z m225 -110 c0 -6 -11 -15 -25 -20 -30 -11 -30 -15 -6 -62 18
-33 18 -48 0 -48 -4 0 -12 12 -18 28 -6 15 -16 35 -23 44 -11 15 -9 22 12 42
26 25 60 34 60 16z m120 -72 c0 -16 -3 -19 -11 -11 -6 6 -8 16 -5 22 11 17 16
13 16 -11z m7 -60 c-3 -8 -6 -5 -6 6 -1 11 2 17 5 13 3 -3 4 -12 1 -19z"/>
<path d="M2325 4330 c-3 -6 -11 -7 -17 -4 -7 4 -8 2 -4 -5 4 -6 11 -9 16 -6 4
3 10 -2 14 -10 9 -25 38 -18 34 7 -3 24 -32 36 -43 18z"/>
<path d="M4123 4323 c9 -2 23 -2 30 0 6 3 -1 5 -18 5 -16 0 -22 -2 -12 -5z"/>
<path d="M2615 4309 c-4 -6 -5 -12 -2 -15 2 -3 7 2 10 11 7 17 1 20 -8 4z"/>
<path d="M2532 4280 c0 -14 2 -19 5 -12 2 6 2 18 0 25 -3 6 -5 1 -5 -13z"/>
<path d="M2687 4286 c-3 -8 -3 -24 0 -37 4 -15 3 -20 -5 -15 -7 4 -12 14 -12
22 0 8 -4 14 -10 14 -18 0 -11 -26 15 -56 l25 -29 0 58 c0 58 -3 69 -13 43z"/>
<path d="M2904 4289 c-10 -17 13 -36 27 -22 12 12 4 33 -11 33 -5 0 -12 -5
-16 -11z"/>
<path d="M3340 4230 c0 -5 5 -10 10 -10 6 0 10 5 10 10 0 6 -4 10 -10 10 -5 0
-10 -4 -10 -10z"/>
<path d="M2073 4203 c-18 -7 -16 -30 2 -37 13 -4 35 20 35 38 0 7 -20 7 -37
-1z"/>
<path d="M1705 4190 c3 -5 8 -10 11 -10 2 0 4 5 4 10 0 6 -5 10 -11 10 -5 0
-7 -4 -4 -10z"/>
<path d="M3267 4173 c-3 -5 -1 -17 4 -28 7 -17 8 -17 8 8 1 27 -4 34 -12 20z"/>
<path d="M2660 4145 c5 -16 11 -39 13 -50 3 -13 5 -9 6 11 0 16 -6 39 -14 50
-14 18 -14 17 -5 -11z"/>
<path d="M1262 4087 c-6 -40 -14 -84 -18 -99 -7 -32 15 -40 23 -9 3 11 10 18
17 15 6 -2 20 2 30 9 16 12 17 17 6 37 -7 14 -20 46 -30 71 l-16 48 -12 -72z"/>
<path d="M2560 4131 c0 -6 5 -13 11 -17 7 -4 9 -21 5 -44 -4 -24 -1 -43 8 -55
12 -17 14 -12 12 40 -1 33 -5 66 -9 73 -10 14 -27 16 -27 3z"/>
<path d="M3280 4083 l0 -37 21 23 c22 24 19 51 -6 51 -11 0 -15 -10 -15 -37z"/>
<path d="M1648 4083 c7 -3 16 -2 19 1 4 3 -2 6 -13 5 -11 0 -14 -3 -6 -6z"/>
<path d="M2697 4020 c-3 -11 -1 -20 4 -20 5 0 9 9 9 20 0 11 -2 20 -4 20 -2 0
-6 -9 -9 -20z"/>
<path d="M2602 3965 c0 -16 2 -22 5 -12 2 9 2 23 0 30 -3 6 -5 -1 -5 -18z"/>
<path d="M2638 3918 c5 -5 16 -8 23 -6 8 3 3 7 -10 11 -17 4 -21 3 -13 -5z"/>
<path d="M2402 3885 c0 -16 2 -22 5 -12 2 9 2 23 0 30 -3 6 -5 -1 -5 -18z"/>
<path d="M1201 3883 c-1 -6 -4 -20 -7 -30 -5 -17 -5 -17 6 0 6 10 9 23 6 30
-3 9 -5 9 -5 0z"/>
<path d="M2470 3863 c-15 -14 -31 -21 -42 -17 -21 6 -24 -6 -6 -24 9 -9 8 -12
-5 -12 -9 0 -17 7 -17 15 0 8 -4 15 -10 15 -14 0 -12 -11 5 -34 12 -16 17 -17
31 -5 9 8 27 12 40 11 27 -4 37 13 32 51 l-3 24 -25 -24z"/>
<path d="M1606 3849 c-8 -42 0 -50 9 -9 4 17 5 34 2 36 -2 3 -7 -10 -11 -27z"/>
<path d="M2640 3865 c0 -10 7 -15 18 -13 21 4 19 22 -2 26 -10 2 -16 -3 -16
-13z"/>
<path d="M1318 3843 c6 -2 12 -12 12 -21 0 -13 3 -13 12 -4 10 10 10 15 -2 22
-8 5 -19 9 -25 9 -5 0 -4 -3 3 -6z"/>
<path d="M1920 3797 c0 -13 -5 -28 -12 -35 -9 -9 -8 -12 5 -12 10 0 22 12 27
26 14 35 13 44 -5 44 -9 0 -15 -9 -15 -23z"/>
<path d="M1330 3776 c0 -9 5 -16 10 -16 6 0 10 4 10 9 0 6 -4 13 -10 16 -5 3
-10 -1 -10 -9z"/>
<path d="M1368 3753 c7 -3 16 -2 19 1 4 3 -2 6 -13 5 -11 0 -14 -3 -6 -6z"/>
<path d="M2401 3734 c0 -11 3 -14 6 -6 3 7 2 16 -1 19 -3 4 -6 -2 -5 -13z"/>
<path d="M1426 3732 c-5 -9 20 -32 28 -25 3 4 6 10 6 14 0 10 -28 20 -34 11z"/>
<path d="M1885 3710 c-3 -5 3 -10 14 -10 12 0 21 5 21 10 0 6 -6 10 -14 10 -8
0 -18 -4 -21 -10z"/>
<path d="M1480 3686 c0 -2 11 -6 25 -8 14 -3 25 -1 25 3 0 5 -11 9 -25 9 -14
0 -25 -2 -25 -4z"/>
<path d="M2402 3640 c0 -14 2 -19 5 -12 2 6 2 18 0 25 -3 6 -5 1 -5 -13z"/>
<path d="M2238 3618 c-3 -7 -2 -22 2 -33 7 -19 7 -19 15 4 7 24 -8 53 -17 29z"/>
<path d="M2357 3623 c-12 -11 -8 -23 8 -23 8 0 15 7 15 15 0 16 -12 20 -23 8z"/>
<path d="M1933 3553 c-23 -8 -14 -33 12 -33 18 0 25 5 25 18 0 18 -12 23 -37
15z"/>
<path d="M1860 3530 c0 -5 7 -10 15 -10 8 0 15 5 15 10 0 6 -7 10 -15 10 -8 0
-15 -4 -15 -10z"/>
<path d="M1980 3480 c0 -22 5 -40 10 -40 6 0 10 18 10 40 0 22 -4 40 -10 40
-5 0 -10 -18 -10 -40z"/>
<path d="M2368 3513 c6 -2 18 -2 25 0 6 3 1 5 -13 5 -14 0 -19 -2 -12 -5z"/>
<path d="M1033 3496 c2 -6 23 -12 48 -14 53 -4 46 8 -11 18 -29 5 -40 4 -37
-4z"/>
<path d="M1862 3494 c1 -9 9 -19 16 -22 9 -3 13 2 10 14 -1 9 -9 19 -16 22 -9
3 -13 -2 -10 -14z"/>
<path d="M950 3479 c0 -5 5 -7 10 -4 6 3 10 8 10 11 0 2 -4 4 -10 4 -5 0 -10
-5 -10 -11z"/>
<path d="M1000 3481 c0 -5 9 -11 21 -14 16 -4 18 -3 8 9 -13 16 -29 19 -29 5z"/>
<path d="M2320 3480 c0 -5 5 -10 10 -10 6 0 10 5 10 10 0 6 -4 10 -10 10 -5 0
-10 -4 -10 -10z"/>
<path d="M1075 3460 c27 -12 43 -12 25 0 -8 5 -22 9 -30 9 -10 0 -8 -3 5 -9z"/>
<path d="M2277 3300 c-4 -15 0 -20 13 -20 13 0 17 5 13 20 -3 11 -9 20 -13 20
-4 0 -10 -9 -13 -20z"/>
<path d="M1840 3290 c0 -5 5 -10 11 -10 5 0 7 5 4 10 -3 6 -8 10 -11 10 -2 0
-4 -4 -4 -10z"/>
<path d="M2241 3244 c0 -11 3 -14 6 -6 3 7 2 16 -1 19 -3 4 -6 -2 -5 -13z"/>
<path d="M2755 2730 c-3 -5 3 -10 15 -10 12 0 18 5 15 10 -3 6 -10 10 -15 10
-5 0 -12 -4 -15 -10z"/>
<path d="M2125 2390 c3 -5 13 -10 21 -10 8 0 14 5 14 10 0 6 -9 10 -21 10 -11
0 -17 -4 -14 -10z"/>
<path d="M7105 2260 c-3 -5 -1 -10 4 -10 6 0 11 5 11 10 0 6 -2 10 -4 10 -3 0
-8 -4 -11 -10z"/>
<path d="M2226 2245 c-9 -25 -7 -55 4 -55 14 0 24 50 13 61 -7 7 -12 5 -17 -6z"/>
<path d="M2200 2173 c0 -5 5 -15 10 -23 8 -12 10 -11 10 8 0 12 -4 22 -10 22
-5 0 -10 -3 -10 -7z"/>
<path d="M7182 2127 c-15 -43 -15 -47 3 -47 11 0 15 11 15 40 0 22 -1 40 -3
40 -2 0 -8 -15 -15 -33z"/>
<path d="M100 2036 c0 -22 17 -28 24 -10 9 22 8 24 -9 24 -8 0 -15 -6 -15 -14z"/>
<path d="M7172 2038 c-15 -15 -16 -38 -2 -38 6 0 10 -33 10 -80 l0 -80 -30 0
c-16 0 -30 -4 -30 -9 0 -6 8 -10 18 -10 9 1 27 -2 40 -6 22 -7 22 -7 22 114 0
66 -4 121 -8 121 -4 0 -13 -5 -20 -12z"/>
<path d="M7104 1959 c-3 -6 -1 -16 5 -22 8 -8 11 -5 11 11 0 24 -5 28 -16 11z"/>
<path d="M7161 1781 c-8 -5 -20 -7 -26 -5 -7 3 -15 -1 -18 -9 -4 -10 1 -13 19
-9 24 4 24 3 24 -75 0 -78 0 -79 -27 -81 -33 -3 -40 -9 -25 -24 17 -17 15 -48
-3 -48 -11 0 -15 -12 -15 -45 0 -25 -4 -45 -10 -45 -6 0 -10 -26 -10 -59 0
-82 -11 -181 -21 -181 -4 0 -9 30 -11 68 l-3 67 -25 -25 c-22 -22 -23 -25 -7
-28 20 -4 24 -61 6 -94 -11 -20 -11 -20 -34 6 l-22 26 5 -50 c4 -48 4 -49 -32
-66 -20 -10 -36 -21 -36 -24 0 -3 16 -14 35 -23 31 -15 35 -21 35 -57 0 -23
-5 -40 -11 -40 -7 0 -22 -10 -34 -22 -13 -13 -30 -28 -38 -35 -12 -9 -13 -19
-4 -52 6 -23 16 -41 22 -41 6 0 9 -18 7 -45 -4 -44 -22 -65 -22 -25 0 17 -7
20 -40 20 -38 0 -40 -1 -41 -32 0 -18 -1 -100 -2 -183 0 -82 -3 -140 -5 -128
-3 18 -10 23 -32 23 -19 0 -30 6 -33 18 -2 9 -3 5 -1 -9 2 -15 0 -43 -3 -63
-5 -30 -8 -34 -23 -26 -20 11 -30 4 -30 -22 0 -10 -8 -18 -17 -19 -10 -1 2 -6
27 -11 37 -9 41 -12 25 -19 -11 -4 -30 -8 -41 -8 -12 -1 -24 -9 -27 -20 -3
-15 0 -18 17 -14 19 4 19 3 4 -7 -10 -6 -18 -20 -18 -30 0 -11 -4 -20 -10 -20
-5 0 -10 -7 -10 -15 0 -9 6 -15 14 -13 17 3 18 1 10 -29 -5 -18 -10 -21 -24
-13 -20 11 -30 4 -30 -21 0 -9 -5 -19 -12 -21 -6 -2 3 -10 20 -17 40 -17 40
-23 0 -44 -32 -15 -29 -16 109 -16 l142 -1 16 38 c9 20 21 44 26 52 11 18 13
24 30 78 7 24 20 49 30 56 18 12 35 76 30 109 -1 12 5 21 18 24 12 3 21 8 22
12 1 3 2 22 4 41 3 47 8 62 23 78 11 12 15 12 27 -4 20 -27 18 -43 -10 -80
-26 -33 -26 -34 -10 -89 15 -51 15 -57 -1 -85 -10 -16 -22 -30 -26 -30 -14 0
-8 -67 7 -80 22 -18 18 -49 -11 -87 l-25 -33 45 0 c26 0 46 4 46 10 0 5 10 8
23 6 12 -3 22 -5 22 -6 0 -1 15 -3 33 -5 17 -1 32 1 32 5 0 9 -35 54 -77 100
-37 39 -39 46 -18 86 8 16 15 23 15 17 0 -7 8 -13 18 -13 10 0 28 -7 40 -16
21 -14 22 -14 22 6 0 26 -16 54 -62 109 -43 50 -47 72 -18 101 25 25 31 25 58
0 l22 -21 0 22 c0 12 -17 43 -37 68 -46 55 -61 82 -55 99 6 18 58 43 76 36 29
-11 17 22 -22 63 -39 41 -46 69 -24 96 7 7 9 17 5 21 -10 9 29 35 44 29 21 -8
15 15 -7 27 -26 14 -27 67 0 122 18 38 19 64 20 434 0 409 0 410 -39 385z
m-41 -301 c0 -22 -4 -40 -10 -40 -5 0 -10 18 -10 40 0 22 5 40 10 40 6 0 10
-18 10 -40z m-135 -430 c3 -5 -1 -10 -9 -10 -9 0 -16 5 -16 10 0 6 4 10 9 10
6 0 13 -4 16 -10z m-78 -176 c-3 -3 -12 -4 -19 -1 -8 3 -5 6 6 6 11 1 17 -2
13 -5z m-57 -194 c0 -29 -4 -40 -15 -40 -11 0 -15 11 -15 40 0 29 4 40 15 40
11 0 15 -11 15 -40z m270 -34 c0 -7 -6 -19 -14 -25 -19 -16 -31 4 -14 23 17
19 28 20 28 2z m-430 -526 c0 -5 -4 -10 -10 -10 -5 0 -10 5 -10 10 0 6 5 10
10 10 6 0 10 -4 10 -10z m-35 -30 c3 -5 1 -10 -4 -10 -6 0 -11 5 -11 10 0 6 2
10 4 10 3 0 8 -4 11 -10z m10 -60 c3 -5 -1 -10 -9 -10 -9 0 -16 5 -16 10 0 6
4 10 9 10 6 0 13 -4 16 -10z"/>
<path d="M135 1750 c-3 -5 1 -10 9 -10 9 0 16 5 16 10 0 6 -4 10 -9 10 -6 0
-13 -4 -16 -10z"/>
<path d="M1520 1722 c0 -5 9 -12 21 -15 13 -3 19 -1 16 6 -5 15 -37 22 -37 9z"/>
<path d="M7106 1681 c-4 -7 -5 -15 -2 -18 9 -9 19 4 14 18 -4 11 -6 11 -12 0z"/>
<path d="M230 1669 c0 -5 5 -7 10 -4 6 3 10 8 10 11 0 2 -4 4 -10 4 -5 0 -10
-5 -10 -11z"/>
<path d="M10 1550 c8 -5 20 -10 25 -10 6 0 3 5 -5 10 -8 5 -19 10 -25 10 -6 0
-3 -5 5 -10z"/>
<path d="M2241 1484 c0 -11 3 -14 6 -6 3 7 2 16 -1 19 -3 4 -6 -2 -5 -13z"/>
<path d="M2190 1448 c0 -48 4 -47 18 5 8 30 8 37 -4 37 -10 0 -14 -12 -14 -42z"/>
<path d="M220 1450 c0 -5 5 -10 11 -10 5 0 7 5 4 10 -3 6 -8 10 -11 10 -2 0
-4 -4 -4 -10z"/>
<path d="M1220 1430 c0 -6 7 -10 15 -10 8 0 15 2 15 4 0 2 -7 6 -15 10 -8 3
-15 1 -15 -4z"/>
<path d="M1460 1383 c0 -22 2 -25 10 -13 13 20 13 40 0 40 -5 0 -10 -12 -10
-27z"/>
<path d="M1446 1324 c-4 -9 -4 -19 -1 -22 3 -3 5 -1 5 5 0 6 11 8 25 5 18 -3
25 0 25 12 0 22 -46 21 -54 0z"/>
<path d="M3765 1310 c3 -5 8 -10 11 -10 2 0 4 5 4 10 0 6 -5 10 -11 10 -5 0
-7 -4 -4 -10z"/>
<path d="M3717 1184 c-11 -11 3 -24 24 -24 12 0 19 5 17 13 -5 14 -31 21 -41
11z"/>
<path d="M153 1074 c4 -4 1 -14 -6 -22 -10 -13 -8 -15 21 -9 18 4 32 2 32 -3
0 -6 4 -10 10 -10 21 0 -3 29 -33 39 -17 6 -28 8 -24 5z"/>
<path d="M0 1050 c0 -5 7 -10 16 -10 8 0 12 5 9 10 -3 6 -10 10 -16 10 -5 0
-9 -4 -9 -10z"/>
<path d="M70 1056 c0 -6 61 -36 73 -36 5 0 -2 9 -16 20 -22 18 -57 27 -57 16z"/>
<path d="M230 1021 c0 -6 4 -13 10 -16 6 -3 7 1 4 9 -7 18 -14 21 -14 7z"/>
<path d="M135 970 c3 -5 8 -10 11 -10 2 0 4 5 4 10 0 6 -5 10 -11 10 -5 0 -7
-4 -4 -10z"/>
<path d="M90 960 c0 -5 5 -10 10 -10 6 0 10 5 10 10 0 6 -4 10 -10 10 -5 0
-10 -4 -10 -10z"/>
<path d="M965 890 c-3 -5 1 -10 10 -10 9 0 13 5 10 10 -3 6 -8 10 -10 10 -2 0
-7 -4 -10 -10z"/>
<path d="M1295 880 c3 -5 10 -10 16 -10 5 0 9 5 9 10 0 6 -7 10 -16 10 -8 0
-12 -4 -9 -10z"/>
<path d="M6801 864 c0 -11 3 -14 6 -6 3 7 2 16 -1 19 -3 4 -6 -2 -5 -13z"/>
<path d="M1342 805 c0 -16 2 -22 5 -12 2 9 2 23 0 30 -3 6 -5 -1 -5 -18z"/>
<path d="M6830 815 c0 -8 5 -15 10 -15 6 0 10 7 10 15 0 8 -4 15 -10 15 -5 0
-10 -7 -10 -15z"/>
<path d="M6480 810 c0 -5 5 -10 11 -10 5 0 7 5 4 10 -3 6 -8 10 -11 10 -2 0
-4 -4 -4 -10z"/>
<path d="M1020 790 c0 -5 5 -10 11 -10 5 0 7 5 4 10 -3 6 -8 10 -11 10 -2 0
-4 -4 -4 -10z"/>
<path d="M2281 654 c0 -11 3 -14 6 -6 3 7 2 16 -1 19 -3 4 -6 -2 -5 -13z"/>
<path d="M3520 629 c0 -5 5 -7 10 -4 6 3 10 8 10 11 0 2 -4 4 -10 4 -5 0 -10
-5 -10 -11z"/>
<path d="M1256 604 c-4 -9 -4 -19 -1 -22 2 -3 7 3 11 12 4 9 4 19 1 22 -2 3
-7 -3 -11 -12z"/>
<path d="M1200 595 c-10 -12 -10 -15 4 -15 9 0 16 7 16 15 0 8 -2 15 -4 15 -2
0 -9 -7 -16 -15z"/>
<path d="M1110 590 c0 -5 5 -10 10 -10 6 0 10 5 10 10 0 6 -4 10 -10 10 -5 0
-10 -4 -10 -10z"/>
<path d="M938 572 c-10 -2 -18 -8 -18 -13 0 -13 27 -11 35 2 9 13 4 16 -17 11z"/>
<path d="M1290 571 c0 -6 4 -13 10 -16 6 -3 7 1 4 9 -7 18 -14 21 -14 7z"/>
<path d="M1275 480 c3 -5 8 -10 11 -10 2 0 4 5 4 10 0 6 -5 10 -11 10 -5 0 -7
-4 -4 -10z"/>
<path d="M1110 460 c0 -5 5 -10 10 -10 6 0 10 5 10 10 0 6 -4 10 -10 10 -5 0
-10 -4 -10 -10z"/>
<path d="M2477 463 c-4 -3 -7 -11 -7 -17 0 -6 5 -5 12 2 6 6 9 14 7 17 -3 3
-9 2 -12 -2z"/>
<path d="M150 448 c1 -32 48 -48 58 -19 3 9 -1 11 -17 6 -15 -5 -21 -2 -21 9
0 9 -4 16 -10 16 -5 0 -10 -6 -10 -12z"/>
<path d="M971 441 c-7 -5 -12 -14 -9 -21 2 -7 10 -4 22 9 19 21 12 28 -13 12z"/>
<path d="M1010 430 c-13 -8 -13 -10 2 -10 9 0 20 5 23 10 8 13 -5 13 -25 0z"/>
<path d="M2117 390 c10 -38 53 -67 53 -35 0 8 -6 15 -14 15 -7 0 -21 10 -29
23 l-16 22 6 -25z"/>
<path d="M1005 380 c-3 -5 -1 -10 4 -10 6 0 11 5 11 10 0 6 -2 10 -4 10 -3 0
-8 -4 -11 -10z"/>
<path d="M6615 380 c-3 -5 1 -10 9 -10 9 0 16 5 16 10 0 6 -4 10 -9 10 -6 0
-13 -4 -16 -10z"/>
<path d="M2071 364 c13 -16 39 -19 39 -5 0 5 -11 11 -25 13 -20 4 -23 3 -14
-8z"/>
<path d="M2384 325 c5 -15 1 -17 -38 -19 -11 -1 -21 -8 -24 -16 -4 -12 -2 -13
9 -3 10 10 16 9 31 -4 10 -9 18 -12 18 -6 0 5 11 15 25 21 15 7 25 8 25 2 0
-6 5 -10 11 -10 6 0 9 7 5 15 -3 8 0 15 6 15 9 0 9 3 0 12 -10 10 -15 10 -21
-1 -6 -9 -11 -10 -15 -2 -11 17 -39 14 -32 -4z"/>
<path d="M2195 301 c-3 -5 -1 -12 5 -16 5 -3 10 1 10 9 0 18 -6 21 -15 7z"/>
<path d="M875 270 c-3 -5 -1 -10 4 -10 6 0 11 5 11 10 0 6 -2 10 -4 10 -3 0
-8 -4 -11 -10z"/>
<path d="M1173 273 c-14 -5 -18 -33 -5 -33 4 0 13 9 20 20 12 20 8 23 -15 13z"/>
<path d="M2031 254 c0 -11 3 -14 6 -6 3 7 2 16 -1 19 -3 4 -6 -2 -5 -13z"/>
<path d="M150 240 c0 -5 5 -10 11 -10 5 0 7 5 4 10 -3 6 -8 10 -11 10 -2 0 -4
-4 -4 -10z"/>
<path d="M2398 243 c7 -3 16 -2 19 1 4 3 -2 6 -13 5 -11 0 -14 -3 -6 -6z"/>
<path d="M1275 230 c3 -5 8 -10 11 -10 2 0 4 5 4 10 0 6 -5 10 -11 10 -5 0 -7
-4 -4 -10z"/>
<path d="M790 220 c0 -5 5 -10 11 -10 5 0 7 5 4 10 -3 6 -8 10 -11 10 -2 0 -4
-4 -4 -10z"/>
<path d="M1221 194 c0 -11 3 -14 6 -6 3 7 2 16 -1 19 -3 4 -6 -2 -5 -13z"/>
<path d="M2010 184 c0 -8 5 -12 10 -9 6 4 8 11 5 16 -9 14 -15 11 -15 -7z"/>
<path d="M214 150 c0 -11 3 -20 7 -20 10 0 19 27 12 34 -12 11 -19 6 -19 -14z"/>
<path d="M1292 155 c-11 -13 -10 -15 7 -15 14 0 19 5 15 15 -7 18 -6 18 -22 0z"/>
<path d="M2386 158 c3 -5 10 -6 15 -3 13 9 11 12 -6 12 -8 0 -12 -4 -9 -9z"/>
<path d="M76 134 c-4 -9 -4 -19 -1 -22 2 -3 7 3 11 12 4 9 4 19 1 22 -2 3 -7
-3 -11 -12z"/>
<path d="M1244 95 c-10 -20 -9 -23 7 -22 20 1 21 3 11 29 -6 15 -9 14 -18 -7z"/>
<path d="M1250 10 c0 -5 5 -10 11 -10 5 0 7 5 4 10 -3 6 -8 10 -11 10 -2 0 -4
-4 -4 -10z"/>
<path d="M6530 10 c0 -5 5 -10 10 -10 6 0 10 5 10 10 0 6 -4 10 -10 10 -5 0
-10 -4 -10 -10z"/>
</g>
</svg>
